<?xml version="1.0" standalone="no"?>
<!DOCTYPE svg PUBLIC "-//W3C//DTD SVG 1.1//EN" "http://www.w3.org/Graphics/SVG/1.1/DTD/svg11.dtd" >
<svg xmlns="http://www.w3.org/2000/svg">
<metadata></metadata>
<defs>
<font id="hawk__hunterregular" horiz-adv-x="618" >
<font-face units-per-em="2048" ascent="1638" descent="-410" />
<missing-glyph horiz-adv-x="1146" />
<glyph horiz-adv-x="0" />
<glyph horiz-adv-x="682" />
<glyph unicode=" "  horiz-adv-x="1146" />
<glyph unicode="&#x09;" horiz-adv-x="1146" />
<glyph unicode="&#xa0;" horiz-adv-x="1146" />
<glyph unicode="!" horiz-adv-x="446" d="M41 66q0 22 17 42t38 21q20 0 40 -17t20 -36q0 -28 -18.5 -48t-45.5 -20q-21 0 -36 17t-15 41zM111 287q9 27 10 32q5 9 8 23q65 202 76 236q54 156 78 243q12 40 16 58q17 59 33 106q6 17 16 27q4 4 6 4q6 12 21 8q13 0 20 -14q0 -4 2 -6q11 -22 9 -33q-5 -24 -23 -86 q-22 -85 -78 -250q-67 -213 -72 -232q-21 -71 -45 -141q-2 -13 -14 -24l-4 -7q-7 -10 -20 -10h-9q-42 15 -30 66z" />
<glyph unicode="&#x22;" horiz-adv-x="438" d="M43 788q2 7 7 20.5t7 20.5q1 1 2 5t2 6q15 40 17 47q12 32 35 98l1 3q2 3 2.5 4.5t2 5t2.5 5t3.5 4.5t4.5 5t5 4t6 3t7 2t9 1q6 0 8 -2q9 0 15.5 -7t6.5 -16q-2 -29 -32.5 -127t-47.5 -129q-9 -12 -22 -12h-4q-19 2 -33 21q-9 14 -4 38zM258 788l12 41q4 4 4 11l19 47 q4 13 16 45.5t17 50.5q0 2 2 2q7 37 43 37q4 0 8 -2q8 0 14 -7t6 -16q0 -28 -31 -126t-49 -130q-6 -12 -20 -12h-6q-22 2 -31 21q-12 12 -4 38z" />
<glyph unicode="#" horiz-adv-x="1630" d="M43 563q-7 21 12 29q12 6 25 6q29 0 45 -33q30 -66 68 -90q43 -30 90 -57l24 -15q20 39 66 109q62 95 88 156l-27 12q-22 9 -59.5 27t-46.5 22q-12 6 -23 14t-19 14.5t-17.5 18.5t-14 17.5t-13.5 20t-11 18.5t-11 21t-10 19v2q-7 14 2 37q4 8 4 15q8 16 21 16q13 3 22 -8 q16 -20 35 -55q32 -53 52 -70q7 -5 15 -10q58 -32 142 -60l184 344q11 18 31 11q19 -8 26 -29q9 -14 -2 -39q-6 -9 -10 -25q-3 -6 -10.5 -22.5t-11.5 -24.5l-99 -182q-4 -7 -11 -21.5t-11 -21.5q10 0 14 -2q70 -8 96 -8q91 -4 285 -8l180 -6q10 0 45 -5q4 -1 12.5 -2 t12.5 -2h4q11 0 16 11q15 28 44.5 76.5t39.5 66.5q7 12 27.5 45t30.5 51q6 9 17 29.5t13 25.5q3 6 6.5 13.5t8.5 17.5t8 15t10 14t10 14q8 8 9 10q16 20 32 7q45 -31 19 -70q0 -1 -1 -2t-1 -2q-131 -222 -160 -275q-22 -33 -35 -59l15 -6q84 -33 90 -35q90 -40 139 -108 q16 -24 12 -41q-4 -19 -28 -35q-22 -11 -33 10q-20 33 -44.5 56t-61 39.5t-59.5 24t-73 21.5l-149 -272q3 -1 10 -2t10 -2q76 -21 109 -33q26 -8 88 -47q12 -9 26 -16q17 -12 29 -31q6 -11 4 -24t-10 -21q-9 -12 -29 -12q-2 0 -5.5 1t-4.5 1q-11 2 -23 14q-1 0 -2 1t-2 1 q-95 83 -229 92h-4q-6 0 -14 -10q-18 -33 -33 -55q-90 -159 -119 -236q-3 -12 -12 -18q-2 -2 -4 -2q-15 -15 -29 -15q-2 0 -5 1t-5 1q-23 9 -27 25q-9 15 2 41q8 15 25.5 49.5t27.5 52.5l62 111q6 11 18 31t15 26q-20 2 -56 2q-48 0 -73 -2q-39 -2 -117 -2h-10 q-203 4 -316 35l-43 6q-30 4 -45 8h-4q-1 0 -2 -1.5t-2 -3.5t-2 -3l-2 -2q-13 -21 -36.5 -59.5t-42.5 -69.5t-36 -57q-8 -15 -23.5 -40.5t-21.5 -35.5q-30 -50 -35 -60l-16 -26q-6 -8 -15.5 -10t-17.5 2q-27 15 -33 34q-3 17 11 46l14 22q11 17 36 59t40 64l49 76 q5 7 22.5 33t26.5 42q2 2 5 9t5 10q-55 26 -94 51.5t-76.5 71t-54.5 102.5zM385 383q166 -43 387 -43q29 0 85 1t83 1q19 1 56 2t55 2q32 53 39 66q13 23 36 64.5t42.5 77t35.5 67.5q-6 0 -18 1t-17 1q-54 4 -174 8q-282 13 -403 20h-14q-22 0 -33.5 -7.5t-20.5 -27.5 q-25 -48 -96 -163q-3 -4 -19 -29.5t-24 -40.5z" />
<glyph unicode="$" horiz-adv-x="837" d="M47 285q24 115 141 161q29 13 60 13q41 0 74 -23l45 158q-6 3 -9 6q-35 25 -59.5 69t-32.5 95q-15 102 43 176q73 97 185 113l49 176q4 18 20 18h6q27 0 39 -16q14 -19 2 -43l-41 -135q27 -5 68 -19l51 189q7 18 23 18h6q27 0 39 -16q14 -19 2 -43l-58 -187 q42 -34 64 -73l2 -4q33 -47 -6 -84q-6 -6 -16.5 -6t-16.5 6q-4 4 -8 6q-17 17 -19 22q-10 20 -24 41q-33 -115 -84 -305l-10 -33v-4q70 -36 114 -69q50 -38 80 -117q35 -83 6 -148q-2 -2 -6 -20v-2q-21 -119 -147 -187q-92 -50 -191 -53h-20q-7 -28 -22.5 -85.5t-22.5 -86.5 q-14 -41 -41 -41q-16 0 -29 8q-16 6 -12 27l51 182q-22 2 -68 11l-49 -181q0 -1 -1.5 -4.5t-2 -5.5t-2 -6t-3 -6t-4 -5.5t-5 -5.5t-6 -4t-8 -3t-9.5 -1q-13 0 -28 9q-17 7 -13 26l60 211q-26 8 -70 35q-18 12 -20 14q-97 108 -66 232zM141 141q27 -42 82 -61l72 256 q-12 16 -16 20q-12 17 -39 17t-57 -17t-42 -39q-47 -97 0 -176zM295 57q35 -9 67 -12l132 473l-25 12q-32 18 -39 23q-42 -153 -106 -387l-9 -29q-3 -14 -10 -40.5t-10 -39.5zM346 838q-18 -90 45 -156l78 283q-1 0 -3 -1t-3 -1q-102 -34 -117 -125zM440 43q54 2 131 31 q110 46 134 162q12 57 -6.5 112t-59.5 84q-29 21 -80 49q-17 -60 -46.5 -169.5t-41.5 -151.5l-8 -29q-19 -69 -23 -88zM453 631q36 -24 61 -37l100 364q-32 16 -67 19q-12 -42 -94 -346z" />
<glyph unicode="%" horiz-adv-x="1333" d="M2 -123q6 12 21 12h14q6 2 14 2q3 0 9 -1t8 -1q52 -18 116 29q53 37 82 82q256 365 396 571q16 23 33 49.5t37.5 59t31.5 49.5q87 139 104 164l11 16q122 178 198 254q72 72 150 72q31 0 65 -12q26 -10 34 -24.5t5 -43.5q-3 -11 -10 -16q-10 -7 -18 -4q-22 4 -33 8 q-58 10 -64 10q-31 0 -80 -49h-2q-48 -48 -69 -82q-101 -137 -154 -217l-92 -141q-47 -74 -109 -166q-70 -102 -118 -170q-62 -86 -93 -131q-71 -104 -120 -185q-59 -91 -127 -145q-59 -51 -136 -60h-16q-56 0 -86 46q-8 12 -2 24zM354 987q0 52 39 94q39 39 94 39 q45 0 77 -35t32 -86q6 -40 -27 -81q-44 -50 -108 -50h-2q-46 0 -75.5 33t-29.5 86zM426 983q2 -15 13 -27t26 -12h2q22 2 37.5 16.5t15.5 34.5q0 15 -15 30t-30 15q-13 0 -26 -16q-23 -20 -23 -41zM768 41q0 58 39 94q39 39 92 39q46 0 77.5 -35t33.5 -86q6 -42 -27 -80 q-44 -51 -109 -51h-2q-46 0 -75 33.5t-29 85.5zM840 37q0 -15 12 -27t27 -12h2q22 2 36.5 16.5t14.5 36.5q0 13 -15 28t-28 15q-12 0 -29 -14q-20 -23 -20 -43z" />
<glyph unicode="&#x26;" horiz-adv-x="974" d="M2 346q12 158 127 238q12 9 27 18q56 41 86 55q24 12 84 29q6 0 10 2q-49 94 -8 207q16 50 57 80q89 65 186 65q70 0 127 -28q104 -44 123 -168q7 -54 -30 -96q-39 -48 -105 -48q-21 0 -33 5q-69 18 -75 102q0 10 6 16q5 8 16 8h2q39 0 55 -40q5 -11 23 -11h4q32 0 49 27 q19 25 2 63q-25 49 -59 70t-90 21h-2q-88 0 -152 -52q-32 -25 -40.5 -85t14.5 -97q21 -37 55 -43q27 -2 65 -10l17 -4q49 -8 41 -54q-5 -41 -43 -41q-8 0 -17 3q-5 2 -15 5t-15 5l-21 6q-46 14 -94 14q-101 0 -186 -71q-98 -78 -115 -197q-21 -131 96 -211q77 -54 176 -57 q10 -2 31 -2q80 0 172 14q52 6 92 6q120 0 209 -57q64 -39 86 -92q1 -5 10 -27q1 -2 5.5 -12t5.5 -12.5t5 -13t4.5 -13.5t3.5 -14.5t1.5 -15t-0.5 -15.5l-6 -35q-1 -2 -2 -7t-2 -7q-4 -19 -23 -19q-49 0 -49 49q-5 60 -8 72q-40 112 -183 135q-18 4 -59 4q-32 0 -102 -8 q-90 -12 -148 -12q-67 0 -129 18q-114 32 -180 96q-97 97 -82 242z" />
<glyph unicode="'" horiz-adv-x="139" d="M4 788q25 86 59 191l7 18q2 11 14 17q0 1 1 2t1 2q6 4 20 4q12 -4 17 -12q0 -2 4 -6q11 -23 8 -35q-10 -39 -29.5 -112t-27.5 -103q-2 -8 -15 -21l-2 -2q-8 -8 -18 -8h-4q-24 7 -33 22t-2 43z" />
<glyph unicode="(" horiz-adv-x="862" d="M43 592q6 16 23 16h153l4 8q10 18 21 43q42 103 153 259q15 20 21 26q14 24 20 31l37 51q90 130 250 182q24 10 33 15l18 6q16 6 27 -8q22 -29 18 -47q-5 -18 -28 -27l-56 -21q-126 -40 -221 -172q-3 -5 -10 -14t-10 -14q-77 -107 -119 -174q-23 -37 -60 -117l-14 -33 q6 -2 25 -2q20 0 30 2q5 0 17 1t18 1q39 0 72 -18q12 -6 12 -23q-4 -15 -16 -20q-51 -19 -119 -19h-35h-31q0 -4 -4 -12q-3 -20 -16 -84q-29 -138 -33 -199q-5 -91 42 -156t138 -93q12 -3 27 -9l27 -6q7 -3 18 -14q0 -1 1 -2t1 -2q6 -8 5 -17.5t-9 -15.5q-21 -18 -49 -18 q-5 0 -25 4q-184 34 -243 229q-23 83 -2 190q4 25 15.5 80t16.5 86q9 32 11 45h-54h-6h-8q-25 0 -43 5q-11 2 -29 20q-2 4 -10 12q-11 11 -4 25z" />
<glyph unicode=")" horiz-adv-x="856" d="M41 -43q0 8 8 16l4 4q17 17 31 17q6 -2 20 -2q57 0 136 57q59 41 92 86q162 217 225 357l6 18h-2h-35h-34h-5q-33 0 -45 16q-11 14 -8 41q4 21 25 21h35h43h34h2h13h8q6 12 6 16q73 210 -33 408q-7 12 -16 23t-26.5 29t-22.5 23q-12 10 -35 33l-4 4q-36 36 -17 72 q6 9 17 12q1 0 5 1t7 1q11 0 17 -6l4 -2q42 -35 64.5 -56t52.5 -59.5t46 -78.5q88 -217 21 -418q12 0 18 2q5 0 15.5 1t15.5 1q38 0 72 -25q10 -7 10 -20q-4 -16 -12 -19q-33 -18 -88 -18h-11h-10q-17 0 -41 -4q-5 -14 -8 -19q-13 -41 -35 -75q-167 -264 -211 -328 q-66 -99 -217 -160q-23 -10 -57 -10q-13 0 -19 2h-20q-17 0 -31 19l-2 2q-8 8 -8 18z" />
<glyph unicode="*" horiz-adv-x="532" d="M2 764q-5 11 2 22q17 33 55 33q11 0 15 -2h12q8 2 31 2h22h25q21 0 31 2q-1 2 -50 72q-4 4 -4 6q-11 11 -14 23q-9 22 2 39q11 16 37 16q13 0 18 -10l78 -109q15 35 23 60q17 51 39 92q6 9 16 12q6 0 18 -4q36 -26 21 -64l-25 -71l119 78q15 11 29 0q22 -22 22 -39 q-2 -20 -24 -35q-100 -67 -109 -74q15 1 45 2t45 2h4h9q17 0 27.5 -10t10.5 -27q3 -22 -10 -30q-11 -15 -39 -15h-129h-4q17 -22 23 -33q3 -4 17 -22t21.5 -30t12.5 -25q10 -20 -8 -31q-19 -14 -33 -14q-24 0 -39 24q-14 26 -53 84q-9 13 -10 17q-25 -52 -45 -113 q-2 -6 -10 -24.5t-11 -28.5q-7 -15 -22 -15h-9q-26 10 -32 29q-8 16 0 39q6 13 17 40.5t17 41.5l7 18q-8 -6 -25 -17.5t-25 -17.5t-53 -36q-15 -7 -27 2q-24 16 -24 39q2 18 29 38q23 14 65 43q-2 0 -5 -1t-5 -1h-60h-4q-11 0 -28 7q-2 0 -6.5 1t-6.5 1q-12 3 -16 14z" />
<glyph unicode="+" d="M43 520q8 19 23 19h45q113 0 170 2q10 37 41 137q2 6 2 18l4 23l2 2q5 24 26 41q23 13 50 4q16 -3 12 -23q-1 -3 -4 -11.5t-4 -14.5q-1 -4 -4.5 -16t-4.5 -19q0 -1 -3.5 -9.5t-4.5 -13.5l-2 -12q-4 -16 -16 -51t-17 -55q30 0 89.5 1t89.5 1q21 0 32 -19q13 -12 6 -32 q-7 -29 -45 -29h-14l-4 2q-59 -2 -176 -2l-55 -182q-7 -22 -27 -35q-13 -13 -29 -10q-30 0 -24 40q1 6 4 16.5t4 12.5l6 12q7 24 21.5 72.5t21.5 73.5h-164h-2q-31 0 -43 16q-12 15 -6 41z" />
<glyph unicode="," horiz-adv-x="440" d="M41 -82q10 29 55 29h17q63 -6 116 59q19 23 64 105q9 15 26 59q5 10 9 16q7 23 34 23q18 0 27 -12q16 -16 6 -45q-22 -59 -60.5 -125t-80.5 -109q-49 -49 -129 -49q-28 0 -55 10q-29 11 -29 39z" />
<glyph unicode="-" d="M43 543q6 16 25 16h43q278 4 426 4q21 0 34 -16q10 -16 4 -33q-6 -29 -45 -29h-12h-6q-66 0 -204.5 -1t-213.5 -1h-2q-30 0 -43 17q-12 15 -6 43z" />
<glyph unicode="." horiz-adv-x="190" d="M41 45q-1 23 15.5 43t39.5 23q51 3 54 -52q0 -26 -13 -39q-16 -16 -43 -16h-2q-28 0 -39.5 9.5t-11.5 31.5z" />
<glyph unicode="/" horiz-adv-x="800" d="M2 -129l731 1298q7 17 25 13q31 -4 41 -25q6 -17 -8 -45q-46 -70 -105 -174q-15 -25 -199 -352l-16 -31q-66 -116 -207 -371l-12 -20l-168 -307q0 -1 -6 -9t-9 -11t-10.5 -7t-15.5 -4q-18 0 -35 14q-13 13 -6 31z" />
<glyph unicode="0" horiz-adv-x="757" d="M4 436q2 13 5 38t5 38q10 88 21 156q14 67 49 159q26 63 68 131q41 69 135 111q83 35 139 37h16q93 0 142 -51l24 -25q59 -59 82 -96q51 -83 60 -223q1 -9 2 -27t2 -27v-10q9 -9 6 -20q-1 -10 -4 -30t-4 -30q-23 -131 -25 -139l-2 -16q-25 -126 -47 -183q-13 -37 -47 -96 l-33 -61q-28 -58 -106 -109q-31 -21 -99 -37q-42 -10 -71 -10q-45 0 -93 23q-1 1 -4 2t-4 2q-38 19 -49 30q-23 20 -63 66l-9 8q-41 45 -69 152q-1 4 -4 14.5t-4 17.5q-31 104 -19 205zM88 483q-18 -138 8 -227q19 -73 47 -127q41 -78 109 -106q1 0 3 -1.5t3 -1.5 q36 -18 57 -18q7 0 19 4q9 3 19 5t22.5 4t19.5 3q9 0 15 2q45 6 77 41q38 38 64 86l4 5q41 63 74 192q8 19 10 33q17 63 25 123q10 111 8 159q0 24 -8 64q-9 52 -9 68q-1 19 -9 40t-13.5 31t-20.5 35q-18 27 -26 41q-8 16 -41 45l-4 4q-29 25 -43 29q-18 6 -56 6q-6 2 -20 2 q-3 -1 -10.5 -2t-10.5 -2l-36 -6q-73 -22 -123 -72q-47 -44 -68 -100l-18 -49q-30 -83 -35 -99q-18 -59 -29 -166q-1 -7 -2 -22t-2 -23z" />
<glyph unicode="1" horiz-adv-x="620" d="M4 8v2q-8 14 0 31q5 15 19 22q1 0 9.5 2.5t14.5 2.5q16 0 27 -11q15 -15 57 -22q3 -1 9.5 -2t9.5 -2q78 -19 151 -2h4q4 2 14 2q12 98 27 194q4 24 23 119l18 92q1 7 2 21t2 22q0 11 4 39q6 43 15 82l8 45l18 111q2 13 7.5 38.5t7.5 39.5l6 36q8 38 10 62q4 16 4 26 l-70 -49q-9 -7 -57 -39l-53 -34q-2 -1 -12 -11q-22 -17 -29 -20q-9 -6 -25 -6q-22 0 -32 12q-15 11 -15 29q2 19 27 34q18 13 47 31l51 37q7 4 21.5 13.5t21.5 13.5q26 16 68 45q21 15 39 33q20 20 32 28q11 8 25 8q24 0 33 -14q18 -26 18 -53q-4 -37 -16 -107l-4 -20 l-25 -133v-2q-8 -34 -10 -56q-12 -56 -21 -108q-8 -55 -10 -78q-12 -78 -12 -80q-2 -17 -17 -94q-3 -14 -8 -41t-8 -41q-3 -18 -8 -55t-8 -56q-4 -38 -8 -55l-7 -49q121 -4 183 -64q17 -14 28 -28q24 -35 -12 -74q-5 -8 -16 -8t-17 6l-6 4q-14 11 -22 21q-45 59 -129 59 q-25 0 -37 -2l-47 -6q-62 -10 -113 -10q-39 0 -55 4q-51 8 -115 28q-16 5 -37 37z" />
<glyph unicode="2" horiz-adv-x="899" d="M0 8q-4 16 10 23l47 30q25 17 99 68l20 16q114 82 168 134q93 81 217 215q98 103 139 161q57 79 66 150q12 86 -33 149q-52 76 -145 76q-11 0 -43 -4q-83 -13 -148 -53q-8 -5 -17.5 -13t-15.5 -14.5t-17.5 -18l-16.5 -16.5l-6 -6l-39 -51q-2 -3 -5.5 -8t-6 -8.5 t-5.5 -6.5q-16 -22 -41 -22q-26 0 -39 22q-11 21 5 41q14 17 22 31q74 86 76 88l6 6q47 47 82 58l8 2q7 2 39 16q15 9 35 19q103 39 211 10q79 -22 131 -96q65 -94 43 -211q-15 -77 -62 -150q-81 -123 -186 -223q-37 -37 -55 -57l-49 -50l-5 -2q-65 -65 -100 -94 q-47 -41 -145 -119l-31 -24q40 4 61 4q18 1 72 -8h4q82 -14 244 -66q12 -4 22 -4h15q6 2 16 2q20 0 41 -6q12 -4 17 -4q10 0 38 12q8 4 9 4q36 16 52.5 51.5t8.5 65.5q-7 28 -26.5 45.5t-41.5 17.5q-26 0 -47 -24q-6 -6 -10 -25l-6 -14q-4 -8 -4 -12q0 -1 -5 -12.5t-9 -16.5 q-8 -12 -25 -12q-31 0 -39 20q-14 33 -4 56q22 60 60.5 93t84.5 33q26 0 47 -8q35 -12 70 -57l8 -8q19 -22 29 -60q5 -21 0 -59q-7 -43 -23 -70q-25 -51 -51 -65q-71 -39 -141 -39q-37 0 -64 8l-28 8q-201 54 -228 60q-102 21 -208 0q-16 -2 -56 -15l-33 -8q-6 -2 -16 -2 q-18 0 -32 11.5t-15 35.5z" />
<glyph unicode="3" horiz-adv-x="948" d="M2 209q-5 35 6 94q2 11 23 47q2 2 5 7.5t5 7.5q59 106 209 124q2 0 5 1.5t5 1.5q7 0 15 -1.5t14 -3.5t13 -6t11.5 -7t11 -8t9.5 -7.5t9 -8t7 -6.5q45 -42 51 -106q0 -2 1 -6.5t1 -7.5q5 -10 5 -13q12 -49 -33 -61q-4 -2 -13 -2q-31 0 -38 37q-2 10 -17 69l-2 8 q-4 19 -19.5 30t-35.5 11h-14q-6 -2 -15.5 -4t-11.5 -2q-27 -4 -37 -10q-25 -16 -49 -53q-15 -20 -23 -64l-6 -24q-11 -44 6 -88q12 -23 21 -35q30 -38 55 -60l10 -10q29 -24 39 -26q23 -5 56 -17q50 -16 69 -16h10q14 2 46 2q37 0 55 4q29 8 117 39l10 4q46 23 61 33 q72 48 111 102l6 10q33 43 78 113q2 3 12 39v4q21 85 -4 170q0 6 -8 10q-12 19 -15 25q-17 40 -73 92l-19 18q-23 26 -86 39q-34 7 -86 7h-24h-17q-6 0 -12 -3q-16 -4 -27 -4h-4q-26 0 -49 23q-29 32 10 63l2 2q143 138 185 181q37 33 61 61h-47h-68h-14h-80q-29 -5 -32 -6 q-3 -2 -3 -4q-3 -8 -10 -24.5t-10 -24.5l-37 -88q-5 -12 -21 -19.5t-28 -7.5h-6q-22 4 -29 20q-11 21 2 46l21 38q5 12 16 34t16 34q3 6 7 18q0 9 8 29q5 10 17.5 20t23.5 11q62 10 112 10h109q20 -2 61 -2q9 0 15 2h24q53 -2 72 -61q7 -15 -6 -25l-238 -240l74 -6 q32 0 64 -10.5t50.5 -21t49.5 -31.5q8 -4 12 -8q21 -13 43 -52l8 -14q5 -8 19 -27q2 -3 10 -14t11 -15.5t9 -14.5t9 -17t6.5 -17t5.5 -20q12 -47 11.5 -115t-25.5 -126q-11 -25 -56 -91q-2 -4 -22 -34q-52 -78 -135 -138q-103 -74 -220 -94q-54 -10 -155 -14h-2 q-14 0 -51 14l-13 6q-5 2 -16 6.5t-16 6.5q-74 28 -113 47q-17 9 -35 35q-4 4 -8 12q-6 6 -6 10l-13 16q-18 21 -34 50q-19 46 -25 98z" />
<glyph unicode="4" horiz-adv-x="978" d="M0 344q0 19 20 39q9 9 21 6q34 -7 86 -49l6 -6q11 -9 39 -17q2 0 4 -2q17 33 37 66l31 57q8 14 24.5 44t24.5 44q33 54 59 105q35 57 58 100q32 63 63 115l37 65q6 9 17.5 28t17.5 28q10 20 39 71q0 2 2 2l-72 4q-11 4 -16 11q-7 10 -4 20q8 51 47 51q14 0 30 -8h4h3 q16 2 49 2q8 1 25.5 2t25.5 2h10h35h20q10 -1 29 -14q4 -4 6 -4q8 -8 8 -16q3 -12 -4 -19l-4 -4q-16 -22 -26 -23q-29 -4 -76 -4q-6 0 -12 -8q-10 -19 -32 -56.5t-32 -57.5l-106 -191q-47 -81 -52 -90q-21 -43 -45 -84q-46 -86 -71 -129l-50 -86q-4 -8 -12 -24.5t-12 -24.5 h-2q60 -25 178 -33h14q24 0 82 8q4 1 14 2t15 2v2q2 10 5 33t5 33q4 48 8 74q2 12 23 28l4 4q10 10 20 7q13 0 17 -13l4 -4q11 -23 10 -33q-4 -36 -16 -112q0 -6 -2 -8h6h31q23 0 41 -3q69 -9 122 -30q46 -17 84 -76q3 -6 31 -39l17 -18q28 -38 0 -66q-16 -16 -31 -16 q-4 0 -4 2q-19 0 -33 24q-15 35 -66 86q-41 41 -118 50q-10 2 -31 2q-31 0 -47 -2h-12q-12 -64 -21 -125l-6 -39q-2 -14 -7 -43.5t-7 -44.5q-4 -15 -25 -31q-2 -2 -4.5 -3.5t-3.5 -2.5q-6 -6 -17 -6h-6q-12 3 -16 14q0 1 -1 3t-1 3q-10 20 -6 33q4 28 16 92q12 56 16 88 q2 9 7 47l-50 -6h-40q-69 0 -140 18q-34 10 -43 11q-89 24 -110 32q-22 9 -90 46l-27 14q-6 3 -19 16l-6 6q-14 14 -14 29z" />
<glyph unicode="5" horiz-adv-x="907" d="M4 184q-16 96 41 183q45 67 107 84q33 10 55 10q27 0 51 -12l31 -13q7 -3 47 -18q16 -9 33 -35v-2q18 -29 26 -55q5 -18 -6 -37q0 -2 -1 -5t-1 -5q-4 -12 -14 -15q-11 -6 -23 2l-8 6q-18 7 -29 21q-7 7 -12 26q0 2 -1 5t-1 4q-22 49 -90 49q-60 0 -86 -41 q-33 -57 -37 -90q-3 -26 12 -86q1 -2 2 -6.5t2 -6.5q17 -65 78 -108q51 -30 80 -35q56 -12 121 -12h10q138 3 262 92q71 55 115 133q3 9 8 14q29 52 33 76q1 2 2 6t2 6q12 54 8 80l-2 15q-8 65 -20 96q-23 63 -84 111l-25 18q-3 3 -10 8t-10 8q-68 49 -144 52q-10 0 -16 2 h-45q-29 0 -41 -2q-35 -5 -43 -5q-57 -4 -82 -20q-11 -8 -27 -8h-6q-2 2 -6 2q-5 -2 -14 2q-23 14 -30 35t-4 33.5t11 31.5l4 8l31 84q4 18 16 54q9 25 27 67q3 11 11.5 33.5t11.5 30.5l6 24q2 2 2 11q8 16 20 16q5 1 14 2t13 2l59 6q8 0 24.5 -1t24.5 -1q5 0 15.5 -1 t15.5 -1h37q10 0 29.5 -1t29.5 -1t29.5 1t28.5 1q4 2 14 2q34 0 49 -31q16 -31 -2 -63q-4 -8 -4 -12q-6 -22 -29 -84l-4 -11q-2 -6 -7 -13.5l-7 -10.5q-4 -4 -4 -6q-7 -11 -16 -11q-6 -2 -19 2l-6 7q-23 11 -25 28q-4 12 6 39l7 15q9 26 26 65v2h-80h-86h-26q-8 -2 -27 -2 q-14 0 -20 2h-4q-9 0 -15 -16q-8 -26 -35 -96q-8 -28 -22 -62q-4 -14 -13.5 -40.5t-13.5 -39.5v-2q9 2 26 5t25 5q2 0 33.5 3.5t48.5 3.5h23q54 0 90 -7q37 -6 98 -30l17 -6q100 -38 182 -170q89 -141 35 -299q-28 -85 -111 -195q-51 -63 -162 -119q-75 -38 -176 -53 q-36 -4 -55 -4q-8 0 -24 1t-25 1q-6 0 -72 12l-35 6q-54 10 -106 54q-96 74 -117 202z" />
<glyph unicode="6" horiz-adv-x="628" d="M6 141q-21 113 25 197q16 30 43.5 88t31.5 66q11 16 21 40l16 31q26 55 109 221q8 16 20 52l19 38q3 8 35 80q10 17 20 41q2 4 5 12.5t5 12.5l-8 -2h-20h-15q-14 3 -24 17t-10 28q0 15 14.5 28t28.5 13q98 4 147 4q10 0 30.5 1t30.5 1h2q27 0 35 -16q13 -15 4 -47 q-8 -19 -22 -19h-25q-19 0 -65 -4q-2 0 -6 -4q-58 -106 -82 -160q-45 -88 -131 -272l-31 -64h2q70 25 129 25q63 0 123 -29q93 -47 133 -135l2 -4q33 -68 31 -113q-12 -148 -92 -237q-58 -61 -156 -90q-19 -7 -82 -21l-33 -6h-8q-4 0 -16 4q-8 3 -19 10q-22 13 -26 13 q-51 9 -105 59q-4 4 -8 6q-66 60 -78 135zM76 217q0 -8 2 -14l6 -47q5 -48 57 -93q28 -24 95 -47h4q34 -12 61 -12q36 0 68 14q135 50 170 177l2 10q20 76 6 108q-5 9 -16.5 27t-16.5 27q-76 106 -188 100q-15 0 -39 -8q-5 0 -21 -4q-57 -12 -92 -47q-42 -45 -57 -74 q-34 -62 -41 -117z" />
<glyph unicode="7" horiz-adv-x="673" d="M2 920l25 90q2 8 7 25.5t7 25.5q2 6 2 20q0 3 1 8t1 7q0 12 12 18q11 7 21 0h4q18 -2 53 -2q15 -1 44 -2t44 -2q5 0 15 -1t14 -1q24 -4 33 -4h143h76h2h14h15q24 0 38 -2q35 -8 45 -37q6 -13 -4 -49l-2 -2q-2 -12 -10 -27l-10 -20q-1 -2 -6.5 -17.5t-7.5 -23.5l-25 -60 q-18 -47 -72 -168q-5 -10 -18.5 -39t-20.5 -45q-5 -5 -8 -14q4 0 10 -1t9 -1q13 -1 17.5 0.5t17 -2t16.5 -4t16 -5.5t15 -6.5t15 -7t15 -6.5q2 -1 6.5 -2t6.5 -2q15 -7 29 -21t20.5 -24t17.5 -29l8 -14q17 -26 17 -41q-2 -15 -13.5 -30t-25.5 -15q-1 0 -3 1t-3 1 q-38 6 -45 33q-11 43 -40 62.5t-79 27.5q-12 2 -39 2h-23q-2 -3 -14 -41q-3 -9 -10 -26.5t-10 -26.5q-3 -6 -35 -74q-2 -6 -7.5 -17.5t-7.5 -17.5l-22 -47q-41 -90 -47 -108q-5 -13 -16.5 -40t-16.5 -40q-3 -7 -10 -23.5t-8 -19.5q-4 -8 -19 -53l-8 -27v-2q-6 -12 -8 -14 l-4 -7q-18 -24 -37 -24q-15 0 -25 10q-10 8 -12 24t1 28l3 12q44 118 72 182q16 40 47 104l18 43q13 26 25 47q39 80 49 125q3 17 12 35h-6h-8q-73 0 -137 47q-25 15 -68 64l-2 2q-10 12 -10 37v8q-3 11 8 22l8 6q14 11 29 0q12 -8 16 -12l39 -31q65 -57 115 -57h8h4h8 q17 -4 25 -6h10q3 6 6 18q4 7 8 21q1 1 29 67l12 29l27 62q57 137 70 165q3 6 8 18.5t8 18.5q3 5 8 19h-18q-39 2 -113 2q-14 1 -41.5 2t-42.5 2q-12 1 -35.5 2t-35.5 2h-64h-35q-12 0 -18 2v-2q-4 -18 -8 -23l-7 -24q-2 -30 -22 -84q-5 -16 -23 -29l-6 -6q-11 -11 -24 -8 q-14 3 -17 16q-1 2 -2 6.5t-2 6.5q-13 21 -8 41z" />
<glyph unicode="8" horiz-adv-x="632" d="M0 176q-3 78 16 156q6 27 33 76l19 36q35 82 139 158l61 49q34 30 49 41q17 13 31 19l-6 12q-28 40 -43 74q-46 90 -18 192q5 21 30 49l6 6q38 38 56 46q46 20 86 20q20 0 30 -2q70 -17 103 -71t18 -128q-27 -142 -151 -219l2 -2q10 -15 26 -35q138 -155 164 -329 q8 -47 -12 -148q-15 -74 -47 -110q-77 -87 -148 -123q-60 -31 -129 -31q-12 0 -18 2q-29 2 -92 18l-15 7q-47 13 -81 43t-70 75q-36 52 -39 119zM88 266q-29 -106 29 -182q39 -44 57 -57q24 -13 64 -23q2 -1 7 -2t7 -2q38 -10 63 -10q68 0 127 47q34 27 66 55q4 4 8 6 q27 32 27 33q15 45 26 107q2 6 5.5 18t5.5 18q-6 17 -9 37q-11 55 -20 82q-36 110 -111 185q-37 41 -47 61q0 2 -2 2q-101 -69 -141 -100q-72 -54 -100 -109l-15 -24q-21 -37 -29 -56q-7 -26 -10 -47zM358 963q-15 -61 9 -113q24 -48 28 -57q2 -3 6 -10t7.5 -13.5t7.5 -11.5 q25 25 39 35q80 68 77 165q0 32 -34 62q-2 2 -6 2h-9q-6 -2 -16 -2q-12 0 -16 2t-9 2q-22 0 -50.5 -22.5t-33.5 -38.5z" />
<glyph unicode="9" horiz-adv-x="649" d="M0 756q9 146 92 235q57 64 154 92q46 14 82 19l32 6q16 4 25 -2t21 -10q17 -13 26 -15q46 -6 105 -57l6 -6q68 -59 80 -135q18 -114 -27 -199q-16 -28 -42.5 -83t-33.5 -69q-3 -7 -10 -20t-10 -20l-15 -31q-47 -93 -108 -223q-4 -8 -11.5 -25t-11.5 -25q-6 -18 -16 -38 q-17 -39 -37 -80l-18 -41q-2 -4 -6.5 -12.5t-6.5 -12.5h9q8 2 22 2h14q13 -3 24 -17.5t11 -27.5q-1 -15 -16 -28t-27 -13q-102 -4 -149 -4q-20 -2 -62 -2h-2q-21 0 -35 14q-13 20 -2 49q3 15 21 19h26q44 0 64 4q4 0 8 4q22 41 82 158q127 266 131 274q17 34 29 64 q-73 -25 -131 -25q-66 0 -123 29q-88 45 -133 133l-2 6q-33 68 -29 113zM74.5 746.5q0.5 -20.5 7.5 -35.5q11 -25 33 -54q71 -102 174 -102q8 0 14 2q7 0 21.5 3t17.5 3l18 6q58 12 93 47q42 45 57 74q37 67 43 117q-2 4 -2 14q-1 6 -4 22t-4 25q-4 45 -56 93q-24 20 -96 45 l-4 2q-25 10 -61 10q-32 0 -66 -12q-134 -49 -170 -177l-4 -10q-7 -27 -9.5 -39.5t-2 -33z" />
<glyph unicode=":" horiz-adv-x="307" d="M41 53q2 22 21.5 42t41.5 20h2q19 0 30.5 -14.5t10.5 -37.5q0 -25 -16 -42t-39 -17t-39 16q-12 15 -12 33zM158 438q-1 23 16 42.5t39 21.5q24 3 37.5 -13t15.5 -43q0 -19 -12 -34q-19 -15 -43 -15h-2q-27 0 -38.5 9t-12.5 32z" />
<glyph unicode=";" horiz-adv-x="542" d="M41 -84q4 29 55 29h15q65 -6 118 59q18 25 64 107q11 21 26 57l7 16q10 23 34 23q17 0 29 -12q15 -20 6 -43q-60 -153 -143 -236q-47 -47 -129 -47q-34 0 -53 8q-14 5 -21.5 14t-7.5 15v10zM401 442q0 27 15 39q10 16 45 19q23 0 33 -10t10 -35q0 -57 -55 -60h-3 q-17 0 -30 14t-15 33z" />
<glyph unicode="=" horiz-adv-x="612" d="M4 324q2 5 5.5 8t9 5t9 2.5t10 1.5t7.5 1h45h33q19 0 59 -1t60 -1q24 -1 71.5 -2t71.5 -2h33h47h41q14 0 20 -12q13 -22 4 -45q-10 -20 -41 -23h-8h-10q-2 0 -4.5 1t-3.5 1q-61 0 -92 2l-254 6q-20 0 -56 -4q-18 0 -28 -2q-17 0 -23 14q-18 31 -6 50zM72 526 q0 14 11.5 24t29.5 11h28q2 0 7 -1t6 -1q60 -1 180 -2t180 -2q12 0 18 2q4 0 12 1t13 1q28 0 41 -16q13 -19 4 -49q-3 -17 -22 -17h-25h-37h-22h-13q-182 0 -366 6q-21 0 -35 17q-10 10 -10 26z" />
<glyph unicode="?" horiz-adv-x="821" d="M6 743q30 122 168 197q117 69 215 76q8 0 24.5 1t24.5 1q83 0 162 -29q4 -1 78 -37q84 -47 127 -141q38 -83 -12 -172q-22 -41 -57 -70.5t-89 -62.5q-78 -49 -178 -76q-39 -12 -107 -45q-70 -37 -104 -127l-3 -6q-3 -7 -4.5 -9t-5.5 -7.5t-7.5 -8t-9.5 -4.5t-13 -2 q-14 0 -29 6q-18 11 -12 29q38 140 172 207q56 29 111 43q96 24 213 104q44 30 59 78q14 43 8 66q-23 95 -100 133q-114 51 -203 51q-44 0 -78 -10q-83 -22 -146.5 -55.5t-105.5 -96.5q-31 -44 -26 -80q6 -34 30 -54.5t58 -20.5q25 0 49 12q23 10 33 10q14 0 31 -14 q8 -8 8 -17q2 -6 -6 -18q-48 -51 -107 -51q-43 0 -94 28q-46 27 -66.5 73.5t-7.5 98.5zM121 61q0 25 20.5 44.5t46.5 19.5q24 0 37 -16q15 -15 15 -39q0 -28 -19.5 -46t-48.5 -18h-4q-21 0 -34.5 16t-12.5 39z" />
<glyph unicode="@" horiz-adv-x="1167" d="M8 391q-37 267 117 434q194 209 455 215h14q290 0 440 -194q75 -93 84 -209q12 -122 -55 -225q-43 -64 -117 -117q-31 -25 -78 -25q-43 0 -83 19.5t-62 50.5l-4 4q-88 -82 -217 -82q-20 0 -60 4q-68 9 -118 50t-76 108q-22 55 -14 110t33 99.5t63 79.5q80 71 209 71 q15 0 61 -4q78 -6 131 -71q32 -37 39.5 -79t-12.5 -77q-43 -72 -129 -72q-3 0 -10 1t-11 1q-70 9 -94 68q-5 11 -2 27v12q0 15 14 22q13 6 27 -4q2 -3 4 -5t4.5 -4t3.5 -3q14 -11 19 -18q25 -25 59 -19q42 10 49 43q3 47 -30 70q-41 30 -82 33q-14 2 -39 2q-110 0 -179 -72 q-37 -40 -47 -91t9 -100q18 -41 64.5 -73t94.5 -31l9 2q35 1 53.5 3t44 10.5t43.5 23.5q19 13 39 37l24 24q17 21 35 21h6q12 -2 24 -14t13 -25q6 -53 66 -68q8 -2 22 -2q39 0 82 37q121 109 100 256q-25 159 -161 240q-133 80 -277 80h-39q-212 -18 -344 -156 q-41 -41 -92 -107q-15 -19 -24.5 -46t-12 -43t-6.5 -54l-6 -35q-12 -107 45 -233q12 -27 35 -53.5t37.5 -38.5t50.5 -41l18 -13q107 -82 262 -82q41 0 138 11q34 5 135 28l94 21q38 8 90 2q65 -8 117.5 -60t58.5 -116q0 -1 1 -2t1 -2q7 -60 -41 -76q-2 -2 -8 -2q-4 0 -12 4 q-10 5 -10 14q-2 4 -2 11q-5 20 -5 24q0 78 -79 121q-23 10 -54 10q-24 0 -36 -2q-44 -8 -105 -24q-6 -2 -25.5 -7.5t-29.5 -7.5q-105 -24 -205 -24q-122 0 -219 32q-13 4 -26 9t-23 10t-23.5 13.5t-20.5 13.5t-20.5 15.5t-18.5 14t-19 15.5t-17 14q-50 44 -76 76 q-67 79 -82 192z" />
<glyph unicode="A" horiz-adv-x="1748" d="M45 90q2 8 9 12.5t16 3.5q18 0 28 -2q20 0 70 -4h4q10 0 21 15q31 42 174 227l79 104l23 31l-66 29q-46 19 -71.5 47.5t-42.5 79.5q-7 13 4 24q12 12 22 9q4 -2 11 -2q26 -5 34 -17q23 -39 60 -61.5t98 -42.5q113 132 285 372l12 17l-67 6q-14 0 -21 14t4 25q28 33 74 33 q4 0 10.5 -1t9.5 -1h13h32q45 0 68 -4q15 0 23 2h24q37 0 62 -25q6 -9 6 -18q0 -8 -9 -17q-25 -22 -67 -22h-21q-8 2 -24 2q0 -4 2 -8q8 -38 16 -66q8 -29 24 -82.5t21 -71.5q6 -21 21.5 -72t23.5 -79q4 -20 11.5 -26.5t25.5 -6.5h2h5l241 -100h2q11 -6 14 -19l5 -20v-8 q3 -8 -5 -19q-12 -8 -18 -8h-6q-2 0 -6 -1t-6 -1q-15 0 -25 10q-18 21 -76 49q-6 4 -16 9q-37 19 -111 30q1 -3 2 -7.5t2 -6.5q6 -19 156 -397q93 -222 113 -281q21 -57 63 -117q43 -67 129 -76h8q33 0 56 23q22 22 22 59q0 35 -37 35q-4 1 -9.5 1t-12 -0.5t-10.5 -0.5h-21 q-14 0 -20 13q-7 11 -2 22q22 49 77 49h13q59 -3 84 -57q18 -34 18 -69q0 -44 -29 -87q-46 -67 -120 -67h-21q-139 18 -209 143q-50 91 -157 347t-140 362q-6 22 -28 90l-9 30h-16q-23 2 -70 2h-112q-17 0 -54.5 -1t-56.5 -1q-6 0 -17.5 1t-17.5 1q-28 0 -63 7q-4 0 -12.5 1 t-12.5 1q-2 2 -8 2t-12 -6q-13 -19 -86 -111q-141 -186 -176 -242h12q8 2 22 2q37 0 56 -22q6 -6 6 -21q-14 -43 -55 -43q-1 0 -3.5 1t-3.5 1q-120 6 -229 15h-4q-23 3 -35 18q-6 10 -6 21q0 10 4 20zM606 524q62 -6 135 -6q46 0 144 4q13 0 41 1t41 1l-101 346z" />
<glyph unicode="B" horiz-adv-x="1845" d="M123 -260v9q0 97 65 159q92 89 183 106l75 13q51 8 80 14q42 9 78 20l55 13q33 10 64 10q98 4 147 4q186 4 277 8q123 8 309 37q124 21 176 119q14 27 14 53q0 14 -4 27q-40 129 -137 178q-110 55 -232 55h-13h-35q-19 0 -56.5 1t-54.5 1q-14 0 -39 1t-39 1q-52 0 -61 49 q0 15 4 19q7 10 18 10q7 0 9 2h16l47 2q29 1 89 2t89 2h51q6 0 18.5 -1t18.5 -1q9 0 22 1t19 1q96 6 178 64q19 12 30 34.5t9 45.5q-3 47 -53 73q-72 38 -174 41q-194 7 -379 7q-67 0 -100 -2h-90h-60q-49 2 -123 26q-46 18 -71 76q-13 32 -13 62q0 32 15 63 q19 41 54.5 64.5t78.5 23.5q29 0 59 -12q2 -1 27 -11q23 -11 27 -28q5 -18 -7 -37q-13 -23 -34 -23q-19 0 -35 19q-14 14 -35 14q-28 -1 -46.5 -18t-23.5 -43q-4 -23 10 -46t39 -32q63 -17 99 -17h6q74 2 244 2h133q49 0 146 -3t116 -3q88 -5 182 -51q34 -15 57 -47.5 t31 -73.5q3 -17 3 -33q0 -61 -40 -98q-55 -58 -129 -92q30 -14 52 -27q97 -51 143 -174l4 -6q12 -31 14 -53q3 -20 3 -39q0 -79 -54 -135q-83 -92 -201 -113q-146 -27 -395 -39q-94 -4 -141 -4q-50 0 -148 -4q-50 -3 -108 -16l-35 -6q-15 -2 -43.5 -7.5t-40.5 -7.5 q-77 -15 -127 -22q-104 -18 -186 -97q-43 -43 -43 -100v-7q0 -54 47 -101q58 -58 111 -58h3q28 0 50.5 16t29.5 42q4 10 4 19q0 25 -30 38q-2 2 -10 2q-4 2 -9 2q-15 8 -18 18l-2 13q-3 16 14 26q4 0 6 2q13 9 27 9h2q48 -3 74 -37q24 -32 25 -73q0 -5 -1 -9 q-8 -68 -51.5 -109t-107.5 -41q-35 0 -72 15q-108 45 -156 149q-14 32 -14 74zM543 164q10 32 24 63q11 20 21 49q19 43 28 72q23 54 39 101l45 118q41 105 68 185q0 2 3.5 9.5t4.5 12.5q13 25 15 39q0 4 2 8q0 16 8 29q4 10 15 17t22 7q2 0 5 -1t5 -1q11 -5 19 -18.5 t7 -26.5q-10 -43 -38 -125l-2 -8q-34 -95 -74 -196q-42 -102 -62 -160q-23 -65 -34 -90q-3 -8 -17.5 -45.5t-21.5 -59.5q-5 -11 -13 -24l-4 -4q-7 -10 -16 -13h-8q-24 0 -37 19q-8 12 -8 24q0 9 4 19z" />
<glyph unicode="C" horiz-adv-x="997" d="M41 68q3 20 25 20q18 -1 51 -2t51 -2l242 -6h71q18 -1 54.5 -2t54.5 -2h78q98 0 186 6h2q2 0 6.5 1t7.5 1t9.5 -1t9.5 -1q13 -4 24 -21q9 -12 5 -20q-4 -14 -21 -31q-8 -6 -23 -6h-4q-10 -1 -29 -2t-28 -2q-86 -4 -129 -4h-6q-68 0 -135 6q-24 0 -64 4q-14 0 -38 1t-33 1 q-53 1 -159 4t-159 4q-28 0 -41 15q-9 11 -9 29q0 5 1 10zM102 616q2 6 5.5 19.5t5.5 19.5l18 76q24 86 88 150q121 118 252 139q50 4 76 4q72 0 133 -20q144 -52 203 -86q55 -27 55 -83q0 -13 -7.5 -19.5t-17.5 -6.5h-8q-6 0 -18 6q-33 32 -79.5 56.5t-79 35t-91.5 27.5 q-52 14 -102 14q-55 0 -107 -18q-194 -79 -231 -248q-15 -63 -23 -113q-3 -31 2 -45q39 -89 96 -129q135 -89 289 -98q12 -2 39 -2q65 0 121 16q99 36 156 90q22 19 41 19q6 0 10 -2h4q13 0 20 -10q4 -5 4 -12q0 -5 -2 -11q-21 -46 -75 -76l-9 -4q-90 -52 -133 -67 q-38 -13 -127 -17h-2h-18q-186 0 -332 96q-86 57 -125 119q-37 63 -37 127q0 27 6 53z" />
<glyph unicode="D" horiz-adv-x="1820" d="M44 -314q6 54 30 99q38 71 125 145q56 50 139.5 85.5t169.5 45.5q91 14 297 21q45 4 135 8h21q269 13 462 84q143 49 207 139q67 94 67 208q0 42 -9 87q-20 118 -113 189q-60 48 -154 75q-83 27 -231 35l-60 6q-56 5 -137 5q-127 5 -151 8h-11q-123 14 -175 32 q-20 6 -38 15q-51 22 -67 71q-7 21 -7 42q0 31 15 63q22 41 59 65.5t80 24.5q34 0 58 -12q1 0 4.5 -2.5t6 -4.5t6.5 -5t6.5 -7.5t4.5 -9.5q3 -19 -8 -39q-10 -10 -22 -10l-17 2l-32 6h-7q-38 0 -61 -33q-19 -26 -10 -53q3 -7 11 -14t15 -8q102 -29 162 -39q29 -4 92 -4 q16 -2 51 -2l11 -3q109 -3 217 -12q4 0 13 -1t13 -1q74 -3 131 -14q121 -23 209.5 -64t147.5 -125q63 -90 76 -237q1 -17 1 -34q0 -164 -132 -302q-63 -66 -170 -102q-137 -49 -283.5 -74t-237.5 -27q-73 0 -217 -8q-5 -1 -17 -2t-18 -2q-33 0 -47 -2q-85 -4 -153 -14 q-139 -18 -236 -93q-103 -85 -131 -145q-15 -34 -15 -73t15 -68q21 -47 72 -56q4 0 10.5 -1t9.5 -1q30 0 62.5 23.5t38.5 58.5q2 13 -11 47l-6 19q0 2 -8 14l-8 12q-7 10 -4 21q4 10 14 14q1 0 3 1t3 1q12 6 19 6q4 0 12 -4q42 -23 60 -72q8 -23 9 -47q0 -25 -10 -49 q-51 -120 -165 -120q-39 0 -80 14q-75 25 -101 94q-13 41 -13 81q0 15 2 29zM612 176l6 31q2 9 17 74q57 232 92 471q7 37 21 96q4 13 18 22l4 4q9 9 18 9q12 -4 17 -11l4 -4q16 -16 16 -29q0 -18 -14 -87v-7l-12 -65q-19 -106 -39 -199q-4 -23 -31 -149q-1 -4 -22 -101 l-7 -28q-4 -30 -8 -41q-2 -10 -12 -25l-4 -6q-7 -10 -21 -10h-2q-22 0 -35 16q-6 8 -6 39z" />
<glyph unicode="E" horiz-adv-x="1427" d="M53 215q8 12 19 12q13 3 20 -8l8 -6q2 -2 6.5 -7t7.5 -10t5 -10q15 -55 88 -80l145 404q-8 4 -10 6q-28 14 -55 35q-23 19 -54 57l-8 8q-13 17 -10 37q3 18 25 33q12 6 24 6q14 0 25 -9t14 -26q7 -23 22.5 -36.5t47.5 -28.5l92 340h-10q-35 2 -95 10q-40 6 -65 31t-29 63 v12q0 36 15 70q18 39 53 62q30 18 63 18q48 0 76 -35q10 -10 10 -33v-6q0 -12 -6 -18q-5 -8 -18 -8h-6q-1 0 -5 -1t-6 -1q-14 0 -24 10q-14 14 -23 14q-6 0 -18 -8q-29 -20 -29 -61q2 -24 21 -29q29 -5 75 -8q58 -4 88 -4q247 -14 320 -17h86q92 0 137 2h55q10 0 31 1t31 1 q40 4 63 4h2q32 0 46 -16q13 -15 8 -45q-5 -25 -29 -119l-2 -10q-12 -43 -49 -43q-13 0 -19 2q-9 3 -14 11.5t-2 17.5l27 116h-15q-63 5 -71 5h-4q-130 0 -191 -2q-38 0 -114 -1.5t-115 -1.5q-16 0 -46 3.5t-36 3.5q-6 1 -18.5 2t-18.5 2q-6 0 -19 1t-22 1q-38 -83 -70 -221 q-14 -62 -37 -140q7 -3 35 -8q15 -1 44.5 -2t43.5 -2q12 -1 33.5 -1.5t39.5 -1.5t34 -3q108 -9 178 -23q39 -8 69 -48q29 -39 29 -90q0 -13 -3 -25q-2 -8 -10 -14.5t-14.5 -9t-23.5 -9.5q-10 -5 -24 2q-12 12 -9 22q0 11 2 15l2 14q-6 31 -16.5 44.5t-30.5 16.5l-53 13 q-33 7 -78 14q-17 2 -37.5 3t-45.5 1.5t-38 1.5q-12 1 -35.5 2t-35.5 2q-20 0 -66 4q-4 2 -12 2l-135 -383h6q19 -1 56.5 -2t56.5 -2q21 0 64.5 -1t66.5 -1l55 -2q90 -2 270 -10q176 -8 266 -18q60 -6 140 -37q82 -31 108 -117q9 -31 9 -61q0 -66 -44 -129 q-82 -117 -200 -117q-27 0 -72 10q-68 16 -90 90q-8 25 -8 51q0 18 4 36q9 44 37 75q13 15 53 37q2 0 6 1t6 1q13 0 25 -8q4 -2 8 -6q10 -3 14 -17q3 -11 -6 -20q-5 -5 -8 -11q-14 -14 -22 -18q-39 -21 -40 -78q0 -4 1 -8q0 -36 47 -47q24 -6 47 -6q92 0 145 94q17 34 17 67 q0 24 -9 48q-18 48 -75 63q-105 31 -185 31h-10h-7q-21 0 -77 4q-6 1 -20 2t-21 2q-51 4 -145 8q-11 1 -35 2t-35 2q-191 10 -227 11h-39q-242 0 -303 32q-25 14 -60 58q-19 25 -19 53q0 23 13 49z" />
<glyph unicode="F" horiz-adv-x="1622" d="M41 -356q3 87 74 145q67 49 147 49q59 0 86 -47q14 -25 14.5 -52.5t-14.5 -57.5q-7 -10 -16 -13q-10 -3 -21 4l-2 2q-18 12 -18 27q-6 57 -45 57q-32 0 -66 -22q-62 -36 -59 -86q0 -59 51 -82q24 -12 49 -12q44 0 96 38q24 16 45 42.5t31.5 46t30.5 57.5q7 10 10 20 q27 52 45 142q4 16 12.5 46t10.5 36q7 22 88 319q11 39 26 95.5t17 64.5q4 12 4 18q-60 21 -117 90l-2 2q-12 18 -14 27q-3 11 3 26t19 19q4 2 15 2q14 0 26 -6q7 -6 19 -23q2 -2 2 -4q19 -32 67 -49l101 365h-29q-6 -2 -22 -2q-63 0 -130 28q-81 32 -81 104q0 25 10 56 q15 41 51.5 67.5t79.5 26.5q48 0 78 -30q7 -8 18 -31q0 -2 4 -10q8 -16 -6 -27q-20 -20 -39 -20q-23 0 -37 24q-9 17 -20 17q-16 0 -41 -25q-17 -17 -14 -37q0 -16 16 -29q11 -7 45 -20h2q35 -14 92 -14q35 0 51 2q7 0 20 0.5t24 0.5t20 -1q27 0 82.5 -1t83.5 -1 q132 -4 194 -4q27 -1 81 -2.5t81 -2.5q101 0 152 -2q35 0 49 -16q8 -10 8 -30q0 -11 -2 -25q-4 -16 -4 -25q-1 -6 -17 -84q-2 -12 -13.5 -27.5t-26.5 -15.5q-23 0 -37 17q-16 16 -9 43q1 3 5 15.5t6 18.5l8 33q1 2 2 7t2 7q-68 0 -252 9q-225 10 -272 10q-49 0 -135 -4 l-105 -387q32 -11 92 -11h10q19 0 101 5q14 1 41 2t41 2h20q110 0 162 -54q38 -38 41 -106q0 -50 -51 -53q-10 0 -19 6q-6 6 -6 16v4q0 58 -20 74q-33 25 -49 27q-44 7 -85 7q-14 0 -28 -1q-82 -4 -121 -4q-83 0 -143 8l-101 -363l-2 -12q-9 -31 -26 -106q-41 -153 -51 -181 q-51 -163 -129 -241q-93 -90 -187 -90q-72 0 -133 55q-45 42 -45 109v8z" />
<glyph unicode="G" horiz-adv-x="1228" d="M43 389q-2 25 -2 44t2 32q21 204 154 387q32 43 120 115l13 8q17 15 57 24l21 7q97 32 202 32t205 -41l21 -6q12 -4 20 -8q4 -2 12 -2q5 0 17 4q75 35 186 35q51 0 78 -2h10q11 0 21 -10v-2q6 -2 10 -15q0 -28 -8 -37q-12 -14 -41 -14h-11q-74 0 -145 -6q-22 -4 -35 -8 l4 -6q36 -52 45 -72q18 -33 18 -68q0 -25 -9 -51q-15 -47 -58.5 -74.5t-99.5 -27.5q-27 0 -51 6q-49 12 -71 58q-14 28 -14 62q0 21 5 44q12 52 76 123q-83 31 -146 38q-23 2 -45 2q-112 0 -225 -49q-37 -18 -66 -49t-67 -84q-102 -147 -123 -311q-2 -13 -2 -27 q0 -37 12 -82q45 -174 189 -247q74 -36 184 -39h22q198 0 328 112q51 45 66 84q3 6 10.5 22.5t11.5 24.5q46 97 55 160q5 22 17 31q16 16 33 16q10 0 18 -8q22 -22 16 -45q-19 -65 -47 -145q-3 -7 -8 -22.5t-8 -22.5q-5 -11 -14 -41q-5 -10 -12.5 -31.5t-10.5 -28.5 q-50 -149 -76 -227q-16 -41 -26 -90q-13 -44 -33 -107q-53 -155 -162 -227q-62 -45 -139 -45q-101 0 -172 80q-45 51 -51 110q-1 7 -1 15q0 66 50 118l12 13q34 43 74 47q8 0 23 1t22 1q64 0 106 -33q20 -15 33 -37.5t17.5 -38t9.5 -43.5l2 -14q4 -19 -21 -39l-6 -4 q-8 -8 -18 -8q-15 4 -19 10q0 2 -4 6q-18 18 -16 35q3 23 -15 53q-21 37 -67 37q-41 0 -72 -31q-27 -30 -27 -65q0 -18 7 -37q10 -34 37 -59t59 -33q28 -4 41 -4q84 0 156 92q45 56 71 139l39 133q5 20 12 42.5t15.5 50.5t13.5 44q1 6 4 16t4 13q-105 -66 -184 -82 q-100 -20 -176 -20q-98 0 -174 33q-173 68 -236 206q-46 94 -53 160zM801 733q3 -12 15 -21.5t24 -9.5h8l18 7q3 1 9.5 2t9.5 2q27 8 40 31q9 16 9 35q0 9 -2 18q-5 47 -60 84q-43 -35 -69 -88q-5 -12 -5 -29q0 -14 3 -31z" />
<glyph unicode="H" horiz-adv-x="2066" d="M61 -430q-20 36 -20 76q0 45 25 94q22 46 65 74t94 28q40 0 72 -14q27 -13 61 -51q11 -11 25 -39l6 -14q7 -15 -2 -27l-8 -8q-8 -11 -25 -8q0 2 -6 2q-24 6 -29 10l-30 33q-11 11 -13 14q-30 27 -59 27q-25 0 -51 -23q-42 -39 -42 -98q0 -7 1 -15q6 -41 51 -59 q37 -16 68 -16q41 0 80 28q160 117 227 342q7 24 20.5 67t18.5 60q7 23 22.5 71t22.5 71q1 5 23 80.5t50.5 172.5t39.5 136l-19 10q-38 20 -56.5 32t-48 35.5t-46 52.5t-23.5 66q-4 21 12 27q25 10 31 10q28 0 39 -35q26 -76 129 -114q15 47 35 155q13 74 20 101h-10h-2h-16 q-3 0 -11 -1t-12 -1q-2 0 -6 1t-6 1q-11 0 -27 16q-2 0 -6 4q-8 8 -8 19t10 18l4 4q16 16 33 16q6 1 14 1h17t14 -1q10 -2 31 -2h4q10 0 31.5 1t31.5 1q30 3 64 3h2q6 0 31 -5q2 -1 6 -2t6 -2q12 0 16 -12q5 -8 2 -18q-15 -43 -57 -43q-2 0 -6 1t-6 1h-7h-4q-7 -1 -24 -2 t-25 -2h-6l-57 -277q2 -2 6 -2q42 -8 55 -10l23 -2q190 -19 237 -23q42 -4 89 -7t104.5 -6t89.5 -5l108 -6h11l6 16q3 15 22 78l21 76q7 24 21.5 74.5t21.5 74.5q105 295 149 391q16 39 62 109q17 29 28 45q28 49 101 84q23 13 74 16q106 0 167 -76q32 -39 32 -96 q0 -11 -2 -23q-8 -72 -54 -118l-35 -31q-40 -31 -82 -31q-35 0 -65 23q-34 25 -70 70l-12 14q-20 20 -15 43q7 24 35 35q16 7 29 -6q0 -5 4 -9q14 -14 18 -26q8 -17 41 -47q18 -15 35 -15q15 0 31 11q46 24 61 71q4 15 4 30q0 27 -14 52q-25 39 -76 45q-10 1 -20 1 q-72 0 -119 -58q-62 -77 -104 -176q-43 -104 -106.5 -291.5t-90.5 -294.5q-2 -11 -16 -65q-2 -4 -2 -9q155 -30 213 -114q24 -38 24 -80q0 -18 -4 -37q-3 -16 -20 -19q-16 -4 -23 13q-12 15 -18 30q-20 39 -35 56q-38 38 -76 55q-18 8 -64 16q-12 4 -14 5q-3 -7 -7 -18.5 t-5 -14.5l-12 -43q-33 -109 -72 -254q-2 -8 -5 -26.5t-5 -26.5v-5q24 3 49 3q11 0 31 -15q2 0 6 -4q10 -7 10 -16q2 -9 -6 -21q-4 -4 -4 -6q-20 -20 -33 -20q-55 -2 -168 -2h-47q-19 0 -23 18q-9 34 4 49q9 12 33 12h8h25h25h6l106 394q-2 0 -6 1t-6 1q-74 4 -107 8 q-23 0 -69 4q-32 4 -51 4q-56 6 -88 6h-15h-33q-103 0 -305 33q-13 4 -43 8q-13 -45 -55 -188t-47 -160q-16 -47 -21 -65q-13 -39 -34.5 -109.5t-40.5 -129.5t-37 -110q-57 -159 -217 -282q-49 -41 -121 -41h-25q-118 14 -162 92z" />
<glyph unicode="I" horiz-adv-x="821" d="M43 180v8q0 11 10 21q8 6 23 2q1 -1 4 -2t4 -2q17 -4 25 -12q14 -12 38 -39q29 -36 109 -47l8 18q61 175 93.5 270.5t79 249t77.5 281.5h-8q-12 3 -36.5 8t-37.5 8q-63 18 -102 37q-59 28 -59 77q0 24 14 52q22 46 41 70q42 57 112 57q26 0 45 -8q19 -6 25 -14.5 t14 -36.5q3 -10 -4 -21q-7 -10 -18 -10h-6h-9q-8 0 -12 2q-21 8 -41 8q-25 0 -41.5 -20.5t-36.5 -69.5q-3 -6 15 -16q45 -28 145 -39q36 -4 104 -8q9 -1 30 -2.5t30 -2.5q20 0 35 -6q8 0 12 -2q9 -1 14.5 -9t5.5 -17q-6 -50 -51 -50h-14h-4q-62 5 -72 5q-4 2 -12 2l-19 -72 q-5 -17 -25 -89.5t-32 -111.5l-10 -35q-40 -145 -78 -256q-4 -13 -13.5 -36.5t-13.5 -36.5q-41 -106 -61 -187q35 -5 41 -4q12 2 43 2q62 0 143 -18q107 -21 174 -113q39 -51 39 -118v-6q-2 -70 -45 -124q-79 -101 -196 -104h-7q-75 0 -124 55t-49 128q0 8 1 16 q4 42 16 59.5t56 50.5q16 12 29 2q31 -27 31 -43q-2 -18 -25 -33q-29 -15 -29 -54q0 -10 2 -21q9 -54 62 -72q27 -10 47 -10q35 0 61 20q24 17 37 28t27.5 29t21.5 37q8 22 8 43q0 37 -24 68q-59 74 -143 86q-80 14 -172 14q-67 0 -189 29q-28 7 -54.5 26t-40 35.5 t-34.5 45.5q-5 9 -5 18q0 5 1 10z" />
<glyph unicode="J" horiz-adv-x="1257" d="M46 -341q-6 26 -6 51q0 46 21 87l27 51q46 84 145 84q37 0 74 -12q31 -11 66 -55q11 -18 20 -25q13 -12 8 -35q-6 -18 -18 -24q-8 -4 -21 -4q-18 0 -26 6q-12 10 -21 27q-2 2 -2 4q-24 41 -73 41q-24 0 -41 -11q-58 -30 -74 -100q-5 -21 -5 -41q0 -39 21 -72 q21 -35 66 -49q33 -11 64 -11q39 0 73 17q145 75 236 226q75 120 159 348q28 86 70 178q82 197 123 342l49 156q4 12 12.5 37t12.5 38l6 23q-8 2 -25 2q-2 0 -7.5 0.5t-8 0.5t-8 1t-8.5 1.5t-8.5 1.5t-9 2.5t-8.5 3.5t-9 4.5t-8.5 6t-8.5 7.5q-11 11 -8 22q3 13 16 19 q7 0 15 4q12 6 28 6h166h37h6q15 0 23 -6q2 -1 18 -17l4 -4q6 -9 6 -18q0 -12 -8 -17l-4 -4q-10 -15 -26 -18q-3 0 -10 -1t-11 -1l-20 2h-15h-12h-14l-9 -23q-4 -14 -11.5 -39.5t-13.5 -46t-11 -37.5q-70 -223 -91 -282q-17 -52 -57 -146l-37 -88q-44 -113 -59 -153 l-80 -207q-74 -182 -215 -311q-74 -68 -145 -88q-50 -17 -101 -17q-84 0 -145 47q-56 41 -73 116z" />
<glyph unicode="K" horiz-adv-x="1517" d="M41 37l4 26q0 7 7 13t16 6l88 2q2 3 5 11t5 11l31 89q43 130 65 208l6 23l47 152q9 32 31 103.5t33 109.5q4 15 14 40.5t13 36.5t9.5 31t11.5 36.5t9 31.5q17 58 33 127q2 9 2 19q0 37 -29 73q-45 55 -102 55h-2q-49 0 -74 -39q-14 -22 -14 -46q0 -18 8 -36q5 -10 25 -45 q4 -5 8.5 -12.5t5.5 -9.5q4 -9 2 -18.5t-10 -14.5q-13 -8 -29 -8q-24 0 -45 28q-39 56 -45 100q-1 8 -1 17q0 37 21 76q22 40 63 64t85 24q15 0 39 -4q77 -19 129 -80q43 -52 43 -113q0 -22 -6 -45q-12 -54 -45 -164q-1 -6 -4.5 -17t-4.5 -17l-30 -101q-3 -12 -10.5 -34 t-10.5 -33q-5 -20 -16 -58t-16 -57q-6 -14 -9 -31q7 -1 23 -2t24 -2q90 -8 138 -8h14q218 6 365 135q116 102 202 230q12 18 21 36t10 21l23 41q10 17 28 10q26 -6 33 -27q6 -17 -6 -40q-8 -14 -24.5 -39.5t-20.5 -32.5q-24 -38 -31 -51q-25 -41 -62.5 -83.5t-63.5 -66.5 t-75 -67q-86 -73 -188 -107l6 -6q138 -88 182 -240q34 -126 70 -202q51 -112 154 -166q28 -17 65 -17q26 0 57 8q39 9 56 60q3 13 -6 22q-6 9 -18.5 14.5t-24.5 2.5q-5 0 -21 -4l-20 -6q-18 -4 -27 8q-10 13 0 26q1 3 2.5 5.5t3 5.5t2.5 4q8 21 23 26q22 11 43 11 q34 0 67.5 -18.5t46.5 -49.5q8 -20 8 -40q0 -43 -36 -89q-53 -68 -148 -68q-49 0 -100 23q-160 80 -219 250q-5 18 -17 50.5t-16 45.5q-2 7 -41 121q-40 110 -166 176q-18 10 -69 14l-220 6q-10 0 -30.5 1t-30.5 1h-12l-129 -411q6 -2 20 -2h19q6 2 18 2q30 0 55 -15 q11 -7 11 -20q0 -25 -15 -37q-11 -14 -39 -14q-29 2 -90 7t-94 7l-66 4q-8 0 -16 8q-5 7 -5 14q0 2 1 5z" />
<glyph unicode="L" horiz-adv-x="1310" d="M41 162q-1 3 -1 5q0 12 13 19l10 7q14 8 29 -3l12 -10q22 -18 31 -33q17 -29 58 -38q63 -13 88 -13h6q46 176 110.5 457t75.5 371h-8q-6 0 -19.5 -1t-19.5 -1q-10 0 -25 1t-20 1q-47 3 -82 24q-33 22 -47 72q-7 25 -7 46q0 22 7 40q15 46 54.5 75t86.5 29q41 0 80 -22 q32 -20 32 -47q0 -9 -3 -19q-7 -20 -29 -16q-5 2 -27 8l-59 12h-6q-31 0 -47 -30q-10 -17 -10 -35q0 -17 8 -35q8 -15 49 -18l194 -7l80 -4q18 0 21 -16q9 -26 -4 -43q-13 -16 -39 -16h-4h-27h-35h-8q-41 -207 -94 -416q-54 -221 -92 -408h190h66h114h35h21h16q82 0 121 -4 q89 -8 158 -31q76 -21 135 -96q39 -50 39 -111q0 -67 -45 -124q-28 -36 -77 -58t-102 -22q-80 0 -129 49q-51 51 -51 112v7q3 70 68 125q11 8 24 8q16 0 29 -10q12 -12 12 -29q0 -15 -18 -33q-33 -32 -33 -64q0 -26 21 -53q25 -34 63 -34h4q65 3 117 43q29 23 35 75 q0 62 -39 93q-81 66 -201 75q-158 11 -225 11q-41 0 -119 -4q-37 -2 -229 -7q-90 0 -135 -2h-7q-108 0 -178 107q-3 4 -10 31q0 8 -2 10z" />
<glyph unicode="M" horiz-adv-x="2123" d="M41 -358q7 89 45 134.5t113 59.5q8 2 22 2q37 0 69.5 -18t49.5 -49q6 -10 6 -33v-17q0 -13 -12 -22q-15 -8 -25 2q-4 1 -8.5 4t-5.5 4q-3 2 -8 5.5t-8.5 6t-6.5 5.5q-27 30 -63 30q-35 0 -55 -26q-36 -38 -36 -85q0 -17 5 -36q6 -22 27.5 -36.5t46.5 -14.5h10 q115 15 168 125l190 405q85 181 127 270q10 19 31.5 64.5t34.5 69.5q66 138 90 186q35 79 78 184q5 12 14 34t14 34h-20h-35q-8 1 -15.5 5.5t-11.5 9t-4 5.5q-10 13 -4 25q12 37 37 37q146 -4 215 -8q8 0 25 -11q1 0 2 -1t2 -1q17 -11 10 -33q-17 -36 -57 -36q-4 0 -12.5 1 t-12.5 1q-4 2 -10 2q2 -5 7 -14.5t7 -14.5q41 -84 66 -123q24 -34 67 -123l15.5 -31t13.5 -26l82 -156q14 -25 22 -43q111 106 291 340q61 84 158 201h-14h-13q-15 0 -22 14q-9 35 0 47q11 17 39 17h10q16 0 51 -1t51 -1h25h16h23q22 -4 35 -8q3 -1 9 -2.5t9 -2.5 q16 -4 19 -16q3 -15 -7 -25q-28 -26 -79 -26h-25l37 -838h26h17q35 0 55 -18q8 -8 8 -19q0 -9 -6 -14q0 -2 -4 -6q-10 -19 -27 -19q-172 -4 -237 -4q-5 0 -10 2t-7.5 4t-7 6t-6.5 5q-2 4 -6 8q-8 8 -8 22q5 15 14 17q27 12 76 12h10q21 0 31 2q0 206 -21 666l-6 125 q-27 -27 -39 -43q-44 -56 -84 -111q-84 -111 -112 -145q-49 -62 -115 -135q-10 -11 -49 -60l-23 -24h9q2 0 5.5 1t4.5 1q21 0 33 -15q14 -14 10 -45q0 -9 -7 -15.5t-16 -6.5q-20 0 -30 -2q-45 0 -70 -2q-57 0 -86 2h-51h-2q-27 0 -39 12q-13 16 -10 41q3 16 22 20l78 4 q-31 67 -72 140q-2 5 -26 49.5t-35 68.5q-22 48 -105 195q-6 12 -26 47q-30 -71 -43 -96q-6 -14 -60 -125q-6 -15 -22.5 -49t-24.5 -53q-14 -28 -38 -82t-31 -68l-68 -145q-44 -91 -119 -250q-60 -123 -78 -164q-14 -26 -32 -72l-50 -102q-64 -132 -180 -166 q-42 -10 -67 -10q-33 0 -60 12q-99 34 -99 135q0 8 1 17z" />
<glyph unicode="N" horiz-adv-x="2476" d="M43 -270q3 26 19 49t28.5 32.5t38.5 26.5q18 10 43 21q8 4 12 4q27 10 47 10q57 0 97 -43q37 -40 37 -96v-8q-2 -9 -11 -23l-6 -8q-6 -12 -20 -12t-21 10l-10 18q-3 6 -9 16.5t-9 16.5q-23 45 -48 45q-20 0 -47 -16q-1 0 -2 -1t-2 -1q-6 -6 -12 -9q-36 -19 -44 -41 q-4 -12 -4 -33q0 -17 3 -40q7 -42 24 -61t64 -23h25q95 0 153 82q43 57 92 178q61 156 127 340q49 142 108 334t81 299q2 15 18 67l12 35q5 15 7 23h-13h-20q-4 -2 -10 -2q-43 0 -43 51q-4 17 16 24q1 0 3 1t3 1q21 7 25 7q177 6 202 6h2q14 0 29 -15l6 -4q8 -8 8 -16 q3 -9 -4 -19l-6 -6q-15 -20 -28 -22q-14 -2 -39 -2h-4q0 -2 4 -6v-2l147 -197q42 -54 262 -332q79 -96 135 -160l33 -36q25 -32 57 -64l7 -8q35 104 47 143q4 15 13 43.5t13 42.5q2 6 7.5 18.5t7.5 18.5l20 64q3 14 10.5 39.5t10.5 39.5q26 102 32 121q11 36 41 115 q4 12 15.5 42.5t17.5 47.5q14 36 49 176q28 109 54 185q26 80 53.5 137.5t68.5 103.5q39 43 88 72q38 20 82 20q82 0 142 -57q61 -58 61 -130q0 -41 -20 -87q-1 -3 -11 -23q-50 -104 -153 -104q-30 0 -57 8q-28 9 -37 23q-57 80 -68 98q-12 15 -9 29.5t9.5 22.5t22.5 22h2 q9 9 20 6q10 -3 16 -12q3 -3 7 -11q11 -21 12 -28q8 -32 47 -60q15 -12 39 -12q42 0 63 31q33 47 33 86q0 13 -4 26q-10 35 -41.5 57.5t-68.5 22.5q-23 0 -39 -8q-67 -26 -111 -100q-62 -104 -106 -277q-14 -54 -52 -178t-55 -166q-36 -94 -82 -274q-21 -87 -67 -219 l-31 -97q-7 -17 -10 -33h32q16 -2 31 -12t18 -26q2 -16 -8 -31q-14 -17 -41 -17l-204 -6h-7q-28 0 -43 17q-12 16 -4 49q3 16 23 16h35q-361 425 -619 772q-21 -62 -24 -80q-47 -209 -205 -675q-42 -122 -162 -420q-14 -37 -66 -111q-76 -104 -229 -104h-10q-64 1 -108 47.5 t-52 120.5q-3 24 -3 51q0 16 1 33z" />
<glyph unicode="O" horiz-adv-x="1157" d="M41 72q0 9 7.5 16t17.5 6h32q47 0 70 -2q16 0 49 -1t49 -1l193 -6q86 -2 231 -2h47q63 0 168 10h10q39 0 56 -43q5 -11 0 -22q-7 -11 -19 -11q-4 -2 -12 -2q-20 -4 -31 -4l-75 -2q-58 0 -176 -1t-177 -1h-57q-29 1 -89 2t-89 2q-23 0 -72 1t-74 1q-30 0 -45 15 q-14 14 -14 45zM121 592v10q4 24 4 37q10 68 12 76q30 121 146 196q133 88 262 103q60 6 69 6q59 0 107 -25q10 -6 43 -10q4 -2 14 -2q146 -22 273 -176l6 -10q51 -59 55 -107q0 -14 2 -20q2 -26 2 -44q0 -28 -4 -42q-43 -149 -135 -232q-118 -105 -281 -123q-40 -6 -78 -6 q-158 0 -307 82q-112 64 -164 180q-13 34 -20 78zM205 633q-1 -13 -1 -26q0 -55 15 -87q54 -111 160 -164q113 -55 268 -55h37h2q68 0 176 59q66 37 109 98t71 158q1 5 1 11q0 14 -5 32q-24 110 -151 197q-98 70 -256 70h-17h-45h-32h-27q-57 -2 -152 -56 q-147 -84 -153 -223v-14z" />
<glyph unicode="P" horiz-adv-x="1736" d="M41 -330q1 66 56 111t120 45q13 0 19 -2q76 -9 110 -62q16 -29 21 -47q2 -12 -9 -34q-4 -4 -4 -7q-4 -11 -14 -14q-12 -3 -23 4l-4 4q-15 10 -20 17q-3 3 -7 11t-5 9q-8 17 -15 21q-24 24 -57 24q-38 0 -68 -33q-25 -29 -25 -58t23 -71q9 -19 35 -31t55 -12h17 q99 17 164 125q63 101 120 297q56 200 156 580q12 53 21 108q2 23 10 74l22 82q11 38 11 39q3 7 16 20h2q7 10 20 7l11 -3q20 -3 20 -24q-2 -4 -2 -12q0 -21 -2 -31q-7 -43 -41 -191l-2 -16q-4 -16 -53.5 -218t-65.5 -259q-44 -166 -86 -293q-61 -184 -166 -289 q-55 -52 -143 -67q-10 -2 -31 -2q-78 0 -131 53q-55 58 -55 145zM541 1012q-12 29 -12 60q0 35 16 71q15 37 49 59.5t74 22.5q22 0 51 -11q46 -19 46 -55q0 -9 -3 -20q-3 -9 -12 -15q-12 -4 -19 -2q-8 4 -20 8q-26 11 -35 11q-3 0 -7.5 1t-6.5 1q-19 0 -29 -8.5t-19 -34.5 q-13 -33 0 -56q13 -22 43 -28t66 -6l20 -2q24 -1 67.5 -3.5t63.5 -3.5q24 0 74 -1t74 -1q32 -1 92 -1.5t109 -1.5t92 -3q74 -3 188 -28q100 -24 160 -123q38 -68 38 -138q0 -37 -11 -75q-24 -89 -125 -144q-115 -65 -254 -65h-13q-116 0 -354 -4q-9 0 -29 -1t-30 -1 q-28 -4 -43 -4h-8q-48 0 -48 53q0 10 7 17t16 7q15 0 43 1t43 1l197 7h59h29h28q92 0 133 4q129 9 220 75q62 45 62 119q0 31 -11 68q-40 120 -178 137q-136 19 -226 19h-8q-64 0 -190 4q-47 0 -72 2h-57q-112 4 -168 8q-27 2 -103 20l-2 2q-45 12 -67 58z" />
<glyph unicode="Q" horiz-adv-x="1462" d="M51 571q40 176 127 265q98 98 217 141q96 35 197 35q88 0 199 -27q161 -40 284 -178q85 -94 115 -234q3 -15 3 -35q0 -48 -19 -120q-40 -158 -181 -281q1 -4 11 -24q57 -128 98 -179q35 -49 112 -71h13q32 0 65.5 22t42.5 49q4 22 -8 39q-18 27 -55 33h-29h-6h-14 q-11 0 -19 8q-6 6 -6 17q3 51 55 51h4q51 0 93.5 -26t64.5 -70q5 -12 5 -31q0 -15 -3 -33q-18 -64 -76.5 -101.5t-123.5 -37.5q-48 0 -87 22q-81 52 -110 103l-66 117q-4 10 -16 30q-5 13 -16 31q0 -2 -2 -2q-25 -11 -43 -21q-102 -51 -224 -51q-51 0 -92 8q-117 15 -196 50 q-68 30 -121 86l-49 47q-42 38 -56 53q-98 102 -98 231q0 41 10 84zM127 532q-3 -22 -3 -43q0 -76 42 -139q52 -75 176 -168l8 -8q39 -27 80 -43q98 -37 227 -37h29q105 3 205 68q-55 134 -117 223q-24 38 -86 61q-34 11 -74 11h-22h-12l-3 -2q-3 -2 -5 -4t-3 -5 q-20 -28 -12 -47q5 -12 12.5 -16t30.5 -4h8q16 2 37 -19l6 -6q11 -7 11 -16q0 -13 -9 -19q0 -2 -4 -6q-13 -18 -28 -20q-6 -2 -21 -2q-43 0 -81 29t-44 67q-2 12 -2 23q0 50 35 92q37 43 94 43q21 0 31 -4l22 -4q48 -11 78 -25q60 -27 98 -68q33 -41 80 -129l4 -6 q21 -41 39 -84l7 -10q105 92 143 238q10 36 10 73q0 87 -55 179q-9 15 -30.5 40t-24.5 29q-8 4 -11 10q-80 89 -159 109q-144 37 -218 41h-26q-111 0 -228 -57q-200 -95 -235 -345z" />
<glyph unicode="R" horiz-adv-x="1622" d="M41 76q0 9 8 15.5t17 6.5q10 0 16 -2h33q3 1 10 1.5t12.5 1.5t7.5 3q4 2 11 29q10 40 16 72q3 7 8 33l15 65q7 38 23 108.5t22 102.5l18 84q6 23 15.5 67.5t13.5 59.5q1 9 4 23t4 18q11 52 20 88q3 12 23 25q4 4 6 4q8 7 18 4q10 0 17 -11l4 -4q14 -19 12 -34 q0 -13 -8 -41l-6 -19q-5 -22 -14 -58.5t-13 -55.5l-20 -95q-49 -204 -68 -295l-33 -153q-2 -6 -2 -23l66 -8q9 0 15.5 -8t6.5 -17q-3 -55 -55 -55h-8q-10 1 -31 2t-32 2l-103 6q-22 0 -37 15q-13 12 -13 34q0 4 1 9zM121 1108q7 63 30 97t66 46q15 6 35 6q34 0 62.5 -14 t41.5 -39q10 -23 7.5 -32.5t-19.5 -30.5q-7 -11 -16 -11q-8 0 -19 7q-4 4 -6 4q-14 14 -16 18q-21 21 -35 21q-10 0 -29 -15q-18 -15 -18 -53q0 -37 22 -53q36 -28 90 -31q30 -1 89.5 -4t87.5 -4q124 -4 176 -8q11 0 33.5 -1t35.5 -1q45 -2 275 -17q97 -9 203 -69 q58 -34 77 -107q10 -37 19 -102v-7q0 -70 -56 -126q-32 -30 -52 -46t-53.5 -33.5t-68.5 -23.5q-27 -6 -55 -6q-6 -2 -18 -2h-2q7 -7 21 -20t20 -19q76 -81 94 -244q11 -138 84 -309q46 -100 147 -100q32 0 72 16q38 15 48.5 39t-1.5 62q-11 32 -49 38q-3 0 -6 3 q-49 0 -49 47q0 21 18 24q12 4 41 4q44 0 77 -25t46 -71q11 -33 11 -61q0 -88 -105 -131q-50 -23 -107 -23q-75 0 -134 43t-93 123q-59 138 -88 352q-15 127 -117 203q-49 35 -139 41q-55 4 -160 4h-59h-52q-21 0 -24 20q0 39 12 52q13 16 41 16h4q18 -1 53.5 -2t55.5 -2h67 q18 0 56.5 -1t58.5 -1q15 0 41.5 1t38.5 1q20 0 108 10l35 6q7 0 15 2.5t13.5 4.5t14.5 8l12 8t14.5 10.5t12.5 9.5l8 8q2 3 4 5q9 9 19 14q31 14 38 39q4 16 4 42q0 15 -1 32v8q-6 70 -72 104q-100 53 -229 56q-33 2 -101 5t-102 5q-52 4 -156 8q-25 2 -73 2h-23h-22h-52 q-72 3 -108 8q-67 6 -131 64q-40 34 -40 84q0 7 1 14z" />
<glyph unicode="S" horiz-adv-x="1071" d="M49 -14q17 72 39 119.5t68 80.5q34 26 63 39q74 39 150 39q63 0 127 -28q68 -32 102 -107q21 -46 20 -89q0 -28 -8 -54q-13 -40 -57 -68.5t-86 -28.5h-4q-44 1 -77.5 29t-47.5 74q0 2 -4 10q-7 20 -7 37q0 28 19 47q8 8 21 8q12 -3 18 -12l4 -8q6 -9 10 -21q1 -2 7 -20 l2 -15q16 -51 55 -51q2 0 6.5 1t7.5 1q59 9 62 72v8q0 58 -64 113q-5 1 -57 12q-40 12 -58 12q-8 0 -28 -4q-7 -4 -21.5 -7.5t-17.5 -4.5l-41 -12q-99 -45 -119 -144q-2 -10 -5 -29t-5 -28q0 -11 -4 -31q-2 -10 -1 -20q0 -49 36 -111l4 -8q20 -38 32.5 -57.5t35.5 -44 t50 -37.5q141 -66 252 -66q54 0 93 10q85 20 145 68q142 115 178 266q10 40 10 80q0 73 -32 144q-28 62 -111 141l-82 84q-114 118 -170 168q-82 78 -108 153q-17 48 -17 91q0 76 53 135l13 12l10 10q56 78 164 78q99 0 157 -61q32 -30 62 -76q7 -13 2 -39q-1 -2 -2 -6 t-2 -6q-3 -16 -19 -19q-15 -4 -24 8q-10 12 -21 31q-22 33 -34 45q-18 21 -45 31.5t-47 12t-60 1.5h-2q-99 -46 -121 -127q-6 -19 -7 -39q0 -45 32 -94q49 -72 121 -123l2 -2q109 -105 173 -172t101 -121q49 -72 75 -146q17 -49 18 -104q0 -27 -5 -55q-29 -193 -158 -307 l-20 -19q-44 -40 -68 -55q-129 -80 -258 -80q-62 0 -139 23q-54 15 -135 51q-83 41 -127 121l-25 45q-4 7 -12 21.5t-12 21.5q-33 67 -33 135q0 34 8 68z" />
<glyph unicode="T" horiz-adv-x="1449" d="M41 1106q0 58 37 106.5t90 59.5q10 2 31 2q57 0 96 -45q8 -13 8 -29q0 -8 2 -14q0 -16 -10 -23q-10 -10 -25 -2l-12 6q-6 1 -20 11q-19 14 -40 14q-18 0 -38 -10q-39 -22 -39 -68q0 -48 43 -63q23 -8 61 -11q6 -2 19 -2q104 -16 213 -16q66 0 198 -8q70 -4 107 -4h49h51 q22 0 62 -4q12 0 36.5 -1t38.5 -1h125q27 2 82 2h2q84 0 138 -45q64 -51 63 -127q0 -16 -2 -33q-19 -113 -86 -154q-59 -35 -125 -35q-47 0 -88 17q-40 14 -63 59q-16 31 -16 63q0 14 3 27q4 22 8 35l7 18q0 11 12 15q9 4 22 0q31 -20 31 -56q0 -10 -2 -20q-6 -36 8 -53 q19 -19 45 -19q59 3 94 11q30 6 54 45q16 34 16 65q0 22 -8 43q-27 61 -109 64q-6 0 -20 1t-23 1q-7 0 -23 -1t-24 -1h-61q-29 0 -86 1t-86 1q-35 2 -105 2h-32q-40 -158 -72 -275q-100 -379 -133 -573h24h15q42 0 65 -23q12 -12 6 -24q-9 -39 -53 -39h-14q-25 2 -74 6 t-74 6q-28 4 -47 4q-24 3 -33 19q-12 15 -6 39q3 18 23 18l84 2l207 844q-7 0 -21.5 1t-21.5 1q-65 6 -131 6h-27h-27q-72 0 -204 16l-64 7q-57 6 -94 46.5t-37 94.5z" />
<glyph unicode="U" horiz-adv-x="1880" d="M43 346q-1 12 -1 26q0 42 9 107l2 21q10 82 27 162q5 20 29 94l14 45q1 4 12 41t17 55l6 23q-1 0 -21 -5q-16 -4 -31 -4q-14 0 -28 7q-11 6 -15 20q0 30 13 43q13 16 39 16h14h113h77q25 0 37 -18q13 -22 2 -51q-7 -17 -22 -17h-103l-24 -80q-40 -128 -59 -217l-3 -8 q-30 -131 -30 -214v-19q6 -151 110 -209q120 -66 226 -66q33 0 71 6q180 33 273 97q149 105 192 221q2 6 47 98q4 9 13.5 27.5t13.5 27.5q1 1 12 35q4 5 8 23q4 9 11.5 28.5t11.5 28.5q5 16 16.5 46t16.5 46l78 207q41 96 57 150l12 30q52 142 74 187q65 136 192 178 q58 14 90 14q86 0 144 -61q54 -54 54 -144q0 -21 -3 -43q-19 -120 -135 -151q-24 -4 -37 -4q-44 0 -80.5 24t-56.5 66q-15 33 -15 88v14q0 16 19 35q4 4 6 4q8 11 21 8q11 0 18 -10l4 -8q19 -23 10 -41q-7 -13 6 -45q9 -19 11 -25q4 -12 28 -20q15 -6 31 -6q45 0 72 35 q23 32 23 67q0 7 -1 15q-10 54 -44 85t-81 31q-21 0 -45 -6q-126 -40 -176 -172q-8 -24 -25 -63.5t-20 -46.5q-25 -52 -45 -107q-8 -25 -35 -100l-47 -136q-27 -71 -51 -141q-67 -199 -117 -295q-66 -120 -157 -202q-95 -85 -193 -119q-160 -58 -268 -58q-25 0 -35 2 q-150 9 -258 88q-109 78 -121 240z" />
<glyph unicode="V" horiz-adv-x="2107" d="M41 981q3 9 10 16q2 0 6 4q20 15 33 15q26 0 76 -4q58 -4 90 -4q21 0 57 4h11q24 0 41 -17q14 -14 14 -41q0 -10 -7 -17t-16 -7h-84q1 -4 5 -10l4 -7l36 -69q62 -117 76 -144l92 -180q44 -91 109 -217q19 -38 22 -45q44 -90 70 -121q18 23 25 33l252 342l71 98 q91 122 230 316l114 164q29 40 73.5 103.5t76 107.5t47.5 65q83 111 178 156q51 26 107 26q74 0 147 -51q35 -25 51 -83q9 -30 9 -55q0 -24 -7 -44q-39 -94 -114 -144q-27 -18 -66 -18q-46 0 -88 25.5t-61 64.5l-2 2q-17 35 -21 49q-5 12 0 31v6q0 9 6.5 15t14.5 8l14 2 q15 0 22 -13l19 -32q1 -1 8 -15q14 -23 16 -26q27 -35 62 -35q22 0 61 27q49 39 49 92q0 11 -2 22q-9 54 -47 68q-41 18 -78 18q-39 0 -73 -20q-99 -52 -176 -170q-36 -54 -143.5 -206t-151.5 -210q-40 -57 -117 -158q-48 -66 -125 -170l-117 -168q-17 -23 -49.5 -69.5 t-36.5 -52.5q-33 -42 -65 -88q-13 -15 -35 -46l-4 -4q5 0 15.5 -1t15.5 -1q15 -2 28 -20l6 -4q9 -9 9 -17q0 -11 -7 -18l-6 -6q-19 -20 -22 -21q-4 -2 -17 -2q-10 0 -14 2h-4l-35 2q-147 6 -149 6q-30 5 -39 17q-12 14 0 51q3 16 22 16l49 2l-131 254q-31 59 -47 89l-57 112 q-7 13 -21.5 40.5t-21.5 41.5q-8 14 -31 60t-37 71q-43 82 -86 150q-2 2 -14 6h-21h-28q-6 -2 -17 -2q-2 0 -5.5 -1t-6.5 -1q-6 0 -18 8l-19 20q0 3 -4 7q-6 9 -6 20z" />
<glyph unicode="W" horiz-adv-x="2088" d="M41 987q1 9 8.5 15t16.5 6q20 0 30 2h37q25 0 35 -2l121 -7q32 -4 49 -4h6q25 0 37 -14q10 -10 10 -33q-7 -39 -49 -39h-10q-14 1 -39.5 3.5t-36.5 3.5l-10 2v-19q0 -73 12 -239q12 -138 12 -144q2 -54 9.5 -155.5t9.5 -137.5l6 -84q50 57 113 142l92 118q81 94 166 205 q9 10 25 32t22 30q-2 0 -6.5 -1t-6.5 -1h-14h-18q-27 0 -38.5 8.5t-19.5 30.5q-5 11 2 22q7 10 19 10q15 1 43 2t43 2q86 4 133 4q61 0 90 -4q11 0 18 -10q6 -13 0 -22q-17 -41 -65 -41h-8q-8 -2 -27 -2q22 -39 33 -56q46 -82 119 -200q65 -110 120 -197q13 -22 29 -45l6 18 q21 55 88 226l99 254q20 54 127 319q22 54 54.5 139t41.5 107l4 8q23 57 35 85.5t37.5 74t52.5 78.5q65 71 154 71q84 0 143 -65q51 -52 51 -113q0 -36 -18 -74q-61 -129 -173 -129h-3q-49 1 -94 37.5t-56 81.5q-3 13 2 27t16 20q8 4 15 4q19 0 33 -14q2 -2 16 -23 q0 -2 1 -4.5t1 -3.5q23 -41 74 -41q43 0 67 37l4 6q15 18 23 35q9 22 9 43.5t-9 42.5q-20 38 -59 47q-19 4 -36 4q-63 0 -108 -51q-49 -59 -104 -196v-5q-7 -16 -34.5 -84t-45.5 -112q-23 -57 -69 -171.5t-60 -150.5l-84 -217l-14 -37q-16 -43 -53 -140t-56 -150 q-7 -18 -14 -50q32 -4 47 -4h10q9 0 25 -4q11 -2 21 -13t9 -24q-5 -27 -22 -37q-16 -8 -31 -8h-6q-30 2 -119.5 8.5t-146.5 10.5q-11 0 -19 8q-2 2 -4 2q-8 8 -8 18q-3 21 10 37q15 15 41 15h68q-80 147 -224 376l-88 144q-15 -19 -45.5 -56.5t-46.5 -56.5 q-223 -271 -334 -424h19q17 -2 29 -18q4 -4 6 -4q8 -5 8 -19q0 -13 -8 -18l-4 -4q-13 -21 -33 -21q-1 0 -166 6h-45h-2h-4q-16 0 -23 11q-12 12 -16 18l-4 8q-8 8 -4 19q2 10 12 16q1 0 3 1t3 1q15 10 27 10h2q8 0 17 -1t20 -2.5t18 -2.5q0 152 -25 473q-20 294 -22 363h-10 h-37h-27q-27 0 -43 16q-10 15 -10 34v7z" />
<glyph unicode="X" horiz-adv-x="2729" d="M47 -387q-6 17 -6 36q0 43 31 93q58 92 159 92q53 0 99 -24q50 -27 53 -84q0 -15 -12 -21q-11 -8 -27 -8q-22 0 -33 16l-4 4q-38 35 -80 35q-19 0 -37 -6q-25 -9 -45.5 -44t-17.5 -58q3 -25 31 -48t57 -24h6q52 0 103 45q134 118 325 291l62 55q94 85 299 273l77 69 q47 43 141.5 129.5t98.5 89.5q-15 20 -18 23q-44 55 -70 86q-15 18 -106 119q-130 146 -144 163q-20 23 -43 23h-10q-33 0 -51 2q-13 2 -29 14l-6 7q-9 6 -12 16q0 12 8 20q4 4 4 7q14 14 27 14q12 -1 35 -2t34 -2q14 0 41 -1t41 -1q10 0 25 -1t22 -1q12 0 33 1t29 1h8 q26 0 41 -15q15 -20 6 -47q-1 -9 -8 -14.5t-15 -5.5l-90 -2l307 -353q12 8 19 15l65 59q15 13 336 303q21 20 169.5 171t150.5 153q54 56 129 121q62 54 96 88q18 18 74 47l12 6q31 16 72 16q48 0 87.5 -26t63.5 -62q31 -51 30 -99q0 -36 -17 -71q-20 -41 -59.5 -66 t-90.5 -30q-12 -2 -33 -2q-53 0 -82 20.5t-55 65.5q-11 32 -6 45q11 17 27 21q2 2 8 2q26 0 45 -29q12 -27 24.5 -35t45.5 -10h8q31 0 59 20q32 24 41 58q2 9 2 19q0 27 -18 55q-32 43 -78 43h-2q-27 0 -62 -21q-61 -35 -159 -137l-13 -15q-56 -56 -264 -256l-151 -147 q-56 -56 -131 -121l-62 -55q-120 -111 -170 -156l-57 -53l47 -59l219 -275q8 -8 12 -14l13 -14q41 -50 81 -50q2 0 8 1t9 1q6 2 18 2q45 0 45 -41q3 -22 -10 -32q-13 -13 -35 -13h-12h-6q-26 1 -76 4.5t-74 4.5q-9 1 -28.5 2t-28.5 2h-4q-2 -2 -6 -2q-10 0 -19 6 q-11 5 -18 16q0 1 -1 2t-1 2q-6 6 -6 17q0 8 8 16q0 1 1 2t1 2q15 15 29 17h32h23l-279 352q-4 -2 -8 -6q-57 -48 -222 -193t-218 -194q-21 -19 -47 -48q-7 -6 -41 -40q-2 -2 -203 -187l-43 -39q-95 -89 -186 -168q-37 -33 -123 -82q-32 -16 -70 -16q-53 0 -103.5 32.5 t-70.5 92.5z" />
<glyph unicode="Y" horiz-adv-x="1683" d="M41 -311v12q0 102 98 164q50 29 99 29q46 0 98 -25q40 -20 56 -58q9 -21 9 -43q0 -19 -6 -38q-3 -14 -16 -17q-14 -3 -23 6l-8 9q-16 12 -20 26q-14 52 -72 58q-6 1 -13 1q-58 0 -100 -51q-22 -33 -22 -67q0 -10 2 -21q11 -57 59 -90q52 -30 103 -30q69 0 121 49 q49 48 120 131l52 57q12 15 24 27q27 27 51 57q213 279 351 465q17 23 45 66.5t38 58.5q11 21 29 47l-18 23q-31 39 -62 63q-56 48 -157 170l-37 45q-25 31 -90 96q-18 14 -43 9h-25q-38 0 -66 28q-16 13 -4 33q2 0 2 2q16 16 27 16q130 0 262 -6q8 0 33 -10l12 -6 q12 -8 15 -19q0 -10 -7 -20q-21 -23 -53 -23h-12h-10h-21q130 -177 301 -329l244 344h-6q-31 0 -47 2q-29 0 -39 14q-12 16 0 51q4 19 22 19q16 -2 49 -2l117 -6q55 -3 99 -9q12 -2 28 -18l4 -4q7 -7 7 -14q0 -3 -1 -5q0 -11 -8 -16q0 -1 -1 -2t-1 -2q-14 -14 -28 -16h-9 q-5 0 -14 -1t-14 -1q-19 0 -37 6h-8q-10 0 -21 -13l-26 -32q-32 -37 -72 -91q-82 -113 -141 -202l-80 -119q-8 -13 -17.5 -27t-21 -31t-17.5 -26q-16 -25 -65 -96l-27 -35q-115 -160 -198 -268q-98 -130 -177 -224q-95 -118 -163 -184q-40 -38 -72 -60.5t-72 -31.5 q-31 -8 -65 -8q-68 0 -131 35q-107 53 -113 178z" />
<glyph unicode="Z" horiz-adv-x="1435" d="M43 45q-2 6 -2 11q0 20 20 34q59 52 256 221q10 9 32 27t32 27q45 36 86 71l45 39q165 141 365 322q17 16 35.5 34t41 41.5t35.5 36.5q2 2 6 6.5t7.5 8t7.5 6.5q-57 0 -84 -2q-18 0 -56 -1t-57 -1q-178 -2 -481 -2h-80q-40 0 -88 20q-47 21 -66 70q-7 21 -7 41 q0 36 20 73q14 28 45.5 46t66.5 18q28 0 56 -14q29 -14 35.5 -37t-1.5 -54q-3 -15 -16 -18q-16 -3 -25 6q-2 2 -4.5 5.5t-3.5 4.5q-3 3 -6.5 8t-5.5 7q-8 14 -25 14q-8 0 -12 -2q-36 -9 -41 -33q-8 -40 4 -59q15 -18 58 -21q12 -2 43 -2q13 0 37 1t36 1q57 5 66 5h123h61 q12 0 37 1t37 1h92h78q23 -2 67 -2q76 0 140 10h22q2 -2 6 -2h6q21 0 34 -8t15.5 -15.5t2.5 -13.5q2 -26 -25 -53q-124 -121 -260 -248q-44 -42 -129 -115l-70 -61q-4 -3 -11 -10.5t-11 -10.5q-16 -16 -31 -28l-67 -56q-11 -9 -45 -37.5t-52 -44.5q-126 -108 -172 -151 q-28 -24 -80 -72h37q12 2 35 2q91 -4 277 -8q5 0 16.5 1t17.5 1h27h70q86 0 129 2q17 0 50 1t50 1q82 4 123 4h2h37q63 0 98 -6q191 -31 234 -186q6 -22 6.5 -41t-6.5 -35q-24 -70 -56 -107q-28 -35 -84.5 -59.5t-109.5 -24.5q-35 0 -68 13q-68 27 -90 98q-5 19 -5 37 q0 44 28 84q26 31 34 37q13 8 31 8h8q10 3 21 -4q8 -12 6 -21v-6q0 -24 -4 -31q-3 -8 -17 -22l-6 -6q-17 -24 -17 -44q0 -8 3 -16q7 -26 39 -39q21 -8 47 -8q54 0 106 43q55 46 55 95q0 15 -5 30q-9 43 -37 68q-58 58 -133 61q-44 0 -64 2q-136 4 -205 4q-49 0 -147 -4 q-90 -4 -139 -4q-70 0 -105 2q-66 4 -96 4h-4q-29 -1 -88 -2t-88 -2q-15 -1 -45 -2t-45 -2q-11 0 -31 4q-29 10 -35 35z" />
<glyph unicode="[" horiz-adv-x="647" d="M0 -82q0 27 4 39l25 86q23 70 32 113q15 54 33 131q24 101 45 176q5 21 41 121l25 67q30 86 94 275l31 104q0 7 4 23l12 49q1 4 3 13t3 13q3 12 17 19l24 6q25 0 78 1t78 1h39h6q27 0 41 -12q12 -15 12 -39q0 -9 -6.5 -16t-15.5 -7l-205 -14l-4 -12q-12 -35 -21 -72 q-64 -220 -135 -393q-31 -74 -72 -234q-5 -24 -22 -90q-34 -118 -55 -211l-19 -65q-1 -5 -4 -18t-4 -21l225 -8q5 0 19 -9q7 -10 4 -20q-9 -47 -56 -47h-8h-6l-147 6q-18 2 -52 2q-4 0 -11.5 1t-12.5 1h-16q-9 0 -17 8q-6 9 -6 19v14z" />
<glyph unicode="]" horiz-adv-x="651" d="M2 -84q7 14 23 14l202 2q17 52 45 150q160 528 293 989q-6 1 -18.5 2t-18.5 2q-108 7 -172 23q-16 4 -16 18q-7 21 6 37q12 12 29 12h8q12 -1 61 -6.5t76 -7.5h29h35h6q35 0 51 -18q14 -20 6 -58l-37 -121q-2 -8 -7 -24.5t-7 -24.5q-11 -39 -27 -86q-27 -95 -51 -172 l-203 -698q-8 -31 -10 -51l-6 -29q-1 -7 -8 -13t-15 -6h-12h-12h-10q-30 1 -82.5 3.5t-75.5 3.5h-2q-20 0 -41 6q-15 5 -25 18l-8 8q-13 13 -6 27z" />
<glyph unicode="_" horiz-adv-x="536" d="M2 59q7 17 23 17h45q278 4 426 4q21 0 32 -17q12 -16 7 -32q-6 -29 -46 -29h-14h-4q-66 0 -204.5 -1t-213.5 -1h-2q-31 0 -43 16q-12 15 -6 43z" />
<glyph unicode="a" horiz-adv-x="1689" d="M125 88q7 18 25 18t28 -2q47 0 70 -2h4q13 0 20 11q19 24 53 66.5t62 78t51 66.5q51 62 78 98l29 35q-6 2 -19 5t-20 5q-89 26 -127 94q0 1 -1 3t-1 3q-13 23 -13 42q0 20 15 36q5 8 18 8q12 0 19 -10q52 -71 75.5 -87t77.5 -24q9 0 33 -4l309 398h-16h-12h-11h-18 q-10 3 -27 20q0 4 -4 4q-6 9 -6 19q4 12 10 18q2 2 4 2q13 17 29 17h2q94 -3 189 -9q8 0 25.5 -1t25.5 -1q22 -4 22 -24q-3 -53 -53 -53h-6h-8h-27h-4q1 -8 4 -24t4 -20q27 -104 41 -159q14 -51 47 -152l19 -51q8 -2 28 -6q42 -7 99 -21q64 -15 116 -67q17 -17 33 -49 q6 -12 6 -24q0 -7 -2 -15q-12 -23 -35 -31q-10 -3 -20 0q-10 6 -12 16q-18 64 -111 91l-18 6q-31 14 -56 14q-6 0 -10 -2q2 -5 5 -16.5t5 -16.5q18 -65 39 -129q7 -24 23 -68.5t20 -54.5q14 -32 17 -45h4q2 0 7.5 1t8.5 1q16 4 29 4q36 0 57 -30q7 -11 4 -21q-3 -12 -14 -16 l-12 -6q-28 -11 -35 -11h-156h-53q-16 0 -23 17q-12 35 0 51q13 16 37 16q2 0 2 -2h56l-101 322h-28q-14 1 -42 2t-42 2q-95 0 -189 6q-49 2 -129 14h-8q-10 0 -14 -8q-66 -82 -158 -203q-4 -6 -31 -38q-12 -12 -26 -33q-9 -10 -25.5 -32t-21.5 -28h45q11 0 18 -10 q7 -7 4 -20q-10 -39 -55 -47q-8 0 -12 -2q-7 0 -21.5 -1.5t-21.5 -1.5h-7q-25 0 -73 3.5t-58 3.5h-12q-28 0 -41 18q-8 12 -8 27q0 8 2 16zM690 516q134 -14 314 -14q9 0 28.5 1t28.5 1l-105 354z" />
<glyph unicode="b" horiz-adv-x="1787" d="M84 -256q35 168 170 236q111 60 190 69q287 27 469 27q289 0 492 39q112 20 174 73q46 40 46 96q0 34 -17 74q-53 115 -172 152q-131 42 -242 45q-76 0 -156 6q-13 1 -37.5 2t-37.5 2q-12 0 -21 13q-5 10 2 24q4 8 6 10q8 20 25 27q25 9 51 6q75 -10 137 -10q66 0 185 14 q69 8 157 62q57 38 54 82q0 46 -64 84q-74 41 -178 49q-84 8 -199 8q-113 0 -217 -8h-29h-20h-18h-27q-102 -7 -174 -17h-15q-41 0 -45 41q0 12 9 21q2 0 2 2q10 10 20 12q15 0 39 4q72 8 113 10q33 2 96 2h66q24 1 73 3.5t74 3.5q10 0 30.5 1t30.5 1q12 0 33 1t29 1 q146 0 252 -33q88 -26 121 -51q79 -59 79 -142v-6q-3 -80 -96 -135q-41 -27 -110 -53q12 -4 75 -29q145 -66 189 -217q8 -31 9 -61q0 -51 -26 -97q-40 -72 -131 -110q-119 -51 -276 -60q-180 -8 -268 -10q-44 -2 -133 -5t-132 -5q-196 -13 -315 -33q-70 -10 -141 -53 q-104 -63 -119 -172q0 -7 -6 -31q-1 -2 -2 -6t-2 -6q-3 -19 -23 -19h-6q-25 6 -37 24q-8 12 -8 27q0 7 2 15zM530 141q0 22 2 27q28 85 79 236t75 225q64 189 78 229q3 14 18 19q2 0 2 2q7 4 13.5 3.5t13.5 -3.5q6 -4 10.5 -8t7 -9l4.5 -9q2 -3 2 -9l1 -11q0 -3 -2 -7 q-2 -6 -2 -8.5t-2 -7.5l-1 -5l-2 -4q-33 -106 -98 -299q-3 -10 -10 -31t-10 -31q-69 -198 -70 -202q-4 -15 -31 -88q-13 -39 -49 -39h-4q-9 0 -16 6.5t-7 15.5q0 6 -2 8z" />
<glyph unicode="c" horiz-adv-x="1316" d="M123 436q2 46 27 144l14 57q3 12 6 18q4 8 4 9q44 179 219 299q119 85 252 88q149 0 295 -52q101 -34 172 -133l35 -55q5 -11 16 -25q4 -7 4 -14q0 -10 -10 -18l-22 -19q-8 -8 -19 -4q-10 3 -16 12l-2 5q-55 88 -84 118q-25 25 -53 41q-8 5 -26 11.5t-24 9.5l-20 6 q-95 39 -229 39q-5 0 -14.5 -1t-14.5 -1q-53 0 -141 -39l-60 -25l-2 -2q-46 -45 -72.5 -73.5t-59.5 -78t-48 -98.5q-41 -129 -49 -200q-3 -22 -2 -43q0 -115 84 -183q129 -106 256 -147q77 -23 139 -23q35 0 88 11q155 33 229 77q61 37 107 95l10 16q4 4 8 12q11 11 21 11 q11 0 18 -11q14 -17 14 -34.5t-14 -34.5q-2 -2 -2 -4q-50 -66 -106 -101q-175 -112 -400 -112q-144 0 -293 94q-16 12 -24 16l-37 25q-174 107 -174 298v19z" />
<glyph unicode="d" horiz-adv-x="1636" d="M166 -268q12 115 108 202q70 64 148 101q70 32 178 45q79 12 197 12q14 0 39.5 -1t37.5 -1q40 -4 64 -4q14 0 20 2q117 4 336 21q13 1 72 20l29 12q7 2 21.5 7.5t21.5 7.5q40 16 63 22q44 13 74 44t59 79q54 90 60 158q4 32 4 62q0 149 -88 241l-21 22l-47 50 q-43 45 -151 63q-199 38 -496 41q-71 0 -207 4q-13 1 -39 2t-39 2q-8 0 -20 4l-8 4q-15 8 -15 19q-3 11 8 22l9 9q14 14 26 16q10 2 33 2h21h4q203 -8 327 -10q288 -11 447 -47q128 -29 182 -99q1 -1 35 -41q29 -33 41 -48t30 -45.5t25 -59.5q23 -81 23 -155q0 -94 -37 -177 q-7 -17 -23.5 -45t-19.5 -35l-21 -33q-46 -82 -151 -121q-27 -9 -37 -14q-20 -6 -59 -20.5t-58 -20.5q-45 -13 -72 -16l-32 -2q-197 -18 -279 -21q-3 0 -9.5 -1t-10.5 -1q-24 0 -74 4q-40 4 -64 4h-40q-170 0 -267 -28q-197 -56 -264 -207q-8 -14 -12 -51q-1 -4 -2 -13.5 t-2 -13.5t-2 -12t-2 -12l-2 -15q-3 -11 -13 -18q-4 -2 -12 -2q-6 0 -10 2q-39 20 -39 62q0 10 2 22zM612 162q0 10 2 14q0 13 4 37q7 31 56 221q36 146 45 182q4 20 9.5 41.5t12 46.5t9.5 39l18 68q0 10 2 16q0 19 4 29t19 25l8 8q10 6 17 6h3q11 0 19 -12q10 -20 10 -47 q0 -17 -4 -37l-2 -4q-2 -6 -10 -37t-13 -47q-4 -14 -17 -65.5t-20 -82.5q-7 -29 -32 -141q-2 -9 -22.5 -93.5t-31.5 -133.5q-6 -20 -16 -37l-6 -13q-6 -14 -23 -14h-6l-16 6q-9 2 -14.5 9t-4.5 16z" />
<glyph unicode="e" horiz-adv-x="1417" d="M123 70q0 12 6 18q5 8 16 8l113 6l96 383q-22 9 -32 17q-45 29 -84 65q-7 5 -12 12t-5.5 24t12.5 36q6 8 15.5 9t17.5 -5q6 -4 41 -33q36 -36 62 -45q24 58 56 180.5t38 174.5q-69 12 -82 16q-25 10 -33 37q0 14 4 20q8 8 17 8l8 3q3 0 9.5 1t10.5 1q292 -21 537 -21 q156 0 338 10h2q12 0 24 -12q1 0 2.5 -1t2.5 -1q10 -8 10 -18q0 -4 -2 -9q-1 -5 -4 -15t-4 -15q-25 -82 -31 -99q-4 -14 -29 -24q-1 -1 -4 -2t-4 -2q-14 -5 -21 0q-11 4 -14 16q0 2 -2 4q-6 22 -4 31l18 61h-79h-107h-141l-246 6q-14 0 -44 1.5t-46 1.5l-105 -373l48 -6 q16 -1 46 -2t46 -2q127 -5 164 -9q47 -4 72 -8t60.5 -22t57.5 -50q21 -30 27 -47q3 -8 0.5 -17t-6 -15.5t-7.5 -11.5l-4 -5q-12 -6 -20 -6q-29 0 -39 23q-16 41 -50.5 57.5t-97.5 21.5q-39 2 -115.5 7.5t-115.5 7.5l-82 6q-6 -28 -35 -137q-43 -165 -51 -221 q101 -11 324 -11q263 0 391 15l35 102q6 16 22 16q20 0 23 -14l6 -12q8 -17 6 -33q-3 -15 -25 -102q-11 -39 -57 -39l-33 -2q-226 -11 -280 -11h-2q-49 0 -269 5q-98 4 -149 4h-84h-66h-6h-6q-25 0 -36 13.5t-13 29.5z" />
<glyph unicode="f" horiz-adv-x="1533" d="M166 37q-2 5 -2 9q0 7 4 13q23 33 59 33q13 0 25 -4q2 0 6 -1t6 -1q18 40 56 167.5t65 240.5q-76 68 -90 86.5t-14 50.5q0 8 8 16q6 6 16 6q29 -2 57 -35q8 -11 13 -14q8 -5 20.5 -14.5t16.5 -11.5q24 58 59.5 176t46.5 176h-12h-62l-4 -2h-10q-15 0 -25 10t-10 25 q-2 13 11 32q15 15 38 15h2q14 -1 42.5 -2t43.5 -2q18 0 53 -1t52 -1h27q215 -6 446 -9h33q31 0 87 1t81 1q26 3 43 -14q14 -11 14 -39q-4 -74 -8 -113q0 -46 -57 -55q-11 -4 -21 6q-9 9 -6 21l10 102q-162 13 -377 13q-203 0 -305 6l-123 -383q12 -4 19 -4q53 -15 84 -17 q25 -2 82 -2h49h63q98 0 168 -37q56 -27 62 -92q1 -9 -13 -33q-2 -2 -6 -10q-6 -12 -18 -12q-15 0 -23 10l-6 8q-11 11 -14 25q-7 30 -29.5 42t-64.5 15q-74 6 -150 6h-29q-114 0 -174 19q-12 4 -22 4q-6 -24 -20 -68t-19 -63q-47 -140 -70 -246h19q53 0 82 -27q9 -9 6 -22 q0 -4 -4 -9.5t-9 -7.5q-29 -14 -104 -14q-82 0 -158 17q-12 3 -16 14z" />
<glyph unicode="g" horiz-adv-x="1298" d="M141 565q38 136 101 223q178 244 475 244h14q120 0 268 -80q21 -13 37 -37q9 -11 7 -28t-13 -25q-9 -6 -22 -6q-17 0 -27 8q-8 4 -23 19q-20 16 -30 20q-111 53 -215 53q-19 0 -39 -2q-218 -24 -342 -178q-129 -159 -129 -350q0 -123 94 -223q91 -91 192 -103l43 -4 q112 -14 152 -20h25q51 0 147 39q3 1 8 4t8 4q92 39 138 151q27 60 61 160l25 66v2q7 21 10 24q19 15 37 15q13 0 23 -12t10 -23q2 -11 -7 -33q-60 -177 -90 -260l-14 -45q-13 -33 -27 -76q-27 -76 -57 -172l-57 -180q-2 -7 -8 -18l-7 -11l-6 -12q-6 -12 -20 -12h-6l-15 4 q-18 4 -18 22v8q-3 12 0 27q2 7 18 54t23 71q3 7 8 23t8 24l4 14l15 45t17.5 53t14.5 46q-39 -24 -65 -37q-105 -51 -215 -51q-64 0 -135 18q-9 0 -21 4q-140 33 -201 72q-114 73 -163 199q-29 71 -29 151q0 62 18 131z" />
<glyph unicode="h" horiz-adv-x="1679" d="M129 55q-6 12 -6.5 23.5t6.5 21.5q11 17 35 17h67h13l147 471q-30 20 -35 24q-43 27 -108 74q-29 20 -39 42.5t-12 57.5q0 17 16 23q12 4 18 4t11.5 -1t9.5 -4t7.5 -5t6.5 -6.5t5 -6.5t4.5 -6.5t3.5 -5.5l2 -4q36 -63 135 -104l71 260l-67 4q-17 0 -23 16q-9 21 2 39 q11 17 39 17q18 -2 51 -2q10 -1 32 -2.5t32 -2.5h35q12 2 37 2q16 -4 22 -8q2 0 10 -4q12 -3 15 -16q3 -14 -6 -23q-26 -24 -66 -24h-25q-2 0 -4.5 1t-3.5 1l-82 -283q97 -33 185 -39l61 -2l187 -12q39 0 57 -2h37q93 -4 164 -6l53 -2l102 354q-41 5 -55 12.5t-23 30.5 q-3 8 4 22q6 10 16 10q2 0 5 -1h18q5 0 16.5 -1t16.5 -1h12h58q41 0 57 2h2h10q13 0 23 -4.5t14.5 -8.5t18.5 -18q11 -11 8 -21q-4 -15 -16 -18q-18 -8 -52 -8h-20q-4 0 -11.5 0.5t-13.5 0.5t-10 -1q-58 -169 -104 -363l16 -6q15 -4 40.5 -13.5t35.5 -12.5q25 -8 47 -24 t35 -29t29 -39t21 -36.5t19 -39.5q8 -12 8 -24q0 -8 -4 -17q-7 -19 -39 -31q-19 -6 -30 12l-13 31q-20 46 -30 61q-17 21 -23.5 29t-21.5 20t-29 17q-11 4 -34.5 11t-35.5 11q-2 0 -6 1.5t-6 1.5q-27 -59 -68 -188.5t-59 -209.5h27q1 0 2 1t2 1h10q17 0 29 -12q11 -11 8 -29 q-1 -16 -16.5 -26.5t-30.5 -10.5q-14 -2 -47 -2q-45 0 -68 2q-28 0 -63 7q-4 0 -13.5 1t-13.5 1q-15 0 -18 12q-6 9 -2 20q10 22 24.5 29.5t61.5 7.5h22q11 15 23 56l6 24q35 108 78 250l24 74v2q-4 0 -12 1t-12 1l-105 6q-356 12 -534 39q-29 3 -64 12q-2 0 -6 1t-6 1 q-11 -37 -41 -121q-68 -194 -100 -329l53 -7q15 0 22 -18v-8q3 -7 -0.5 -14.5t-9.5 -10.5l-4 -4q-15 -10 -29 -10q-10 -2 -35 -2h-32q-10 2 -33 2h-2q-47 0 -70 -2h-30q-20 0 -23 16z" />
<glyph unicode="i" horiz-adv-x="757" d="M84 88q6 16 25 16l94 -4q50 117 145.5 426.5t106.5 407.5q-9 2 -30 5t-30 5q-5 1 -9 3.5t-6 6.5l-3.5 7t-2.5 7l-1 5v4q-4 20 16 27q25 8 90 8q102 0 160 -19q16 -6 16 -24q-3 -45 -45 -45h-8q-40 4 -63 4h-11q-16 -136 -77 -320q-24 -71 -64 -207q-19 -73 -39 -133 l-37 -114q-6 -14 -20 -62h14h10q44 0 68 -26q10 -10 6 -21q-3 -10 -14 -18q-5 0 -13 -4q-18 -9 -30 -9q-38 1 -201 11q-32 3 -43 22q-7 10 -7 22q0 9 3 19z" />
<glyph unicode="j" horiz-adv-x="1243" d="M81 389q0 2 1 3q0 4 0.5 10t2.5 11t5 11t8.5 11.5t12.5 10.5q13 9 28 -2q21 -18 25 -53v-8q4 -16 4 -29q12 -73 20 -96q45 -129 181 -156q33 -8 69 -8q128 0 230 117q127 144 188 358q73 258 76 267l26 92q-12 2 -30 2q-15 0 -19 -2q-33 -7 -49 12q-14 17 -8 51 q4 19 22 19h29h62h43h90h6q54 0 57 -47q0 -16 -10 -23q-23 -14 -55 -14h-21q-3 0 -8.5 1t-7.5 1q-5 0 -11 -1t-8 -1q-6 -18 -14 -54l-43 -147q-19 -59 -27 -90q-52 -173 -88 -256q-86 -204 -243 -309q-76 -52 -187 -52q-124 0 -215 66q-94 69 -127 209q-1 10 -4 28t-4 25 l-6 33z" />
<glyph unicode="k" horiz-adv-x="1476" d="M41 66q-1 2 -1 5q0 6 5 13q6 6 18 6l87 6q9 25 26.5 76.5t26.5 77.5q152 438 207 680q-6 0 -17 -1t-16 -1q-2 0 -5.5 -1t-4.5 -1q-19 0 -34.5 12.5t-15.5 46.5q0 9 7 16q9 9 18 9h240q12 0 18 -9q6 -6 6 -18q-6 -37 -24.5 -45t-89.5 -10l-95 -348q8 -2 25 -2 q6 -1 19 -2.5t20 -2.5q50 -4 69 -4h17q20 2 59 2q108 4 152 19q4 1 11 4t11 4q70 24 105 41q18 6 51 35l2 2q5 5 17 13.5t14 10.5q42 35 64 55t52 54t48 68q4 6 28.5 49t38.5 65q13 13 17 19l6 6q8 8 17 8q6 0 13 -4q27 -17 27 -44q0 -17 -10 -38q-2 -6 -10 -18t-9 -13 l-12 -18q-80 -136 -219 -254q-120 -99 -244 -123q3 -1 8.5 -4t8.5 -4q115 -58 159 -193q7 -22 17 -46.5t17.5 -42.5t22 -46t21 -41t24 -44.5t22 -39.5t25 -44t23.5 -40l15 -22q34 -58 96 -72q20 -4 33 -4q47 0 84 43l4 6l2 3q2 3 2.5 4t2.5 4l3 4.5t3.5 4t4.5 3.5t5.5 3 t6.5 3t7 1.5t8 0.5q6 0 18 -4q20 -8 17 -25q0 -22 -10.5 -41t-20.5 -28t-27 -21l-10 -6q-45 -33 -104 -33q-101 0 -160 72l-41 59q-1 2 -6.5 11.5t-7.5 15.5l-7 6l-2 6q-36 44 -67.5 102.5t-46 96.5t-41.5 112l-4 9q-58 156 -224 196q-53 15 -155 19q-10 1 -31 2t-31 2 q-4 0 -12.5 1t-13.5 1t-15 -1t-14 -1h-12q-26 -57 -72 -199.5t-61 -210.5h16h18q39 0 62 -29q7 -11 2 -22q-4 -11 -14 -14l-17 -7q-24 -8 -37 -8q-98 0 -149 -2h-53q-9 0 -16 7t-9 16z" />
<glyph unicode="l" horiz-adv-x="1339" d="M82 209v6q0 10 8 18q10 11 21 7h6q23 -6 28 -11q16 -14 45 -43q6 -5 17.5 -16t17.5 -16q36 -33 78 -39q34 153 103 409q66 251 100 402q-5 0 -15.5 1t-15.5 1h-6q-55 0 -88 20q-10 10 -10 23q3 13 16 20q3 1 9.5 4t9.5 4q26 13 38 13q132 -4 195 -6l25 -2q2 0 22 -5 q4 -4 10 -4q12 -4 15 -16q4 -15 -4 -23q-30 -34 -80 -34q-4 0 -11.5 1t-11.5 1h-18q-26 -121 -105 -412q-72 -283 -100 -410q8 -4 10 -4q17 0 49 -1t49 -1q118 -4 181 -4h63q11 0 37.5 1t40.5 1q160 0 264 -41q143 -52 178 -198q4 -15 4 -31q0 -36 -19 -75q-27 -57 -71 -77 q-6 -4 -20 -4q-27 0 -37 17q-6 10 -6 20q0 20 26 37q32 22 42 50q5 13 4 30q0 17 -5 39q-23 86 -129 123q-80 30 -211 30h-2q-60 0 -170 4q-29 0 -86 1t-86 1h-41q-2 -2 -8 -2q-82 0 -162 23q-38 11 -74.5 34.5t-57.5 44.5t-52 56q-8 11 -8 21q-2 4 -2 12z" />
<glyph unicode="m" horiz-adv-x="1691" d="M41 72q0 11 6 20q9 9 19 6l77 -4q110 190 314 633q85 187 94 205h-16h-23h-2h-8h-17q-38 0 -55 39q-3 12 2 20q6 9 17 13q52 10 102 10q30 0 80 -4q13 0 39 -1t39 -1h24q18 0 29 -17l6 -6q8 -8 8 -16q0 -12 -8 -17q-24 -28 -70 -28h-20h-8l12 -29q12 -29 59 -125l43 -88 q5 -10 15 -35l10 -24q16 -37 48 -110t48 -110l23 -47q56 56 120.5 131t101 120.5t107.5 137.5q102 133 144 183q-7 1 -20 2t-19 2q-28 3 -35 18q-12 12 -8 35q7 33 37 33q14 0 20 -2h2q1 0 47 -6q45 0 68 -2q32 0 94 -4q6 0 16 -3t13 -4q8 -4 12 -4q12 -8 14 -16 q4 -12 -2 -21q-25 -38 -69 -38q-5 0 -14 1t-13 1q-8 2 -24 2v-43q4 -96 8 -144q2 -31 5 -94.5t5 -93.5q1 -30 2 -92.5t2 -92.5v-22v-78q-2 -26 -2 -52.5t2 -53.5q0 -34 6 -64v-14q13 0 21 2h20q38 0 58 -29q5 -7 5 -14q0 -3 -1 -6q-4 -11 -13 -17q-6 0 -10 -4 q-20 -12 -33 -12h-139q-53 0 -82 -2q-24 0 -37 16q-11 14 -8 37q4 15 20 23t29 8h60h24q2 94 2 187q0 300 -22 587q-15 -15 -21 -23l-73 -98q-88 -115 -140 -178q-63 -78 -137 -158q-9 -10 -36.5 -40t-41.5 -48q-10 -10 -32 -41q-2 -5 -8 -11.5t-7 -8.5q-11 -11 -22 -8 q-46 6 -62 55q-83 225 -182 412q-31 64 -41 90l-18 47q-2 4 -6.5 11t-6.5 11l-116 -250q-152 -330 -259 -524q2 0 7 1t8 1q16 4 26 4q23 0 45 -16q9 -6 9 -23q-6 -45 -56 -45q-14 -2 -41 -2q-19 0 -53 1t-49 1q-13 0 -41 4q-3 0 -9.5 1t-10.5 1q-8 0 -14 6t-7 15z" />
<glyph unicode="n" horiz-adv-x="1630" d="M123 43q0 8 8 16l6 7q16 16 33 16q49 0 74 -2h6l229 854h-2h-51h-4q-21 0 -35 12q-10 13 -10 37q0 12 12 18q28 17 62 17q5 0 14.5 -1t13.5 -1h13q12 -2 36 -2t60 -4q4 0 12 1t12 1q8 2 25 2q34 0 57 -23q14 -14 4 -28q-20 -35 -67 -35h-4q330 -488 628 -783 q38 114 127 445q60 230 91 334q-11 0 -19 -2q-4 0 -15 -1t-16 -1q-25 0 -39 18q-13 17 -4 53q1 7 8 13t15 6h51h90h78q14 0 30 -11.5t19 -25.5q0 -22 -10 -35q-14 -14 -41 -14h-2q-12 2 -33 2h-2q-27 0 -31 -2q-1 -1 -2.5 -5.5t-3.5 -11t-4 -10.5l-2 -10q-48 -159 -65 -232 l-19 -69q-65 -268 -115 -408q-12 -44 -16 -72q0 -8 -2 -12h12h8q46 0 66 -39q7 -10 0 -20q-4 -12 -16 -12q-10 -5 -13 -5l-30 -6h-76h-96h-4q-26 0 -39 15q-15 15 -15 39q0 10 8 17t17 7h59l-92 100q-14 15 -41.5 45t-42.5 44l-27 30q-20 20 -81 90q-64 83 -115 154l-43 57 q-41 57 -82 111q-8 12 -25.5 36t-25.5 36l-74 102q-38 -104 -116 -391t-103 -424h6h23h8h8q43 0 49 -45q0 -13 -10 -23q-30 -20 -76 -20h-16q-9 0 -11 2q-34 0 -100 4q-7 0 -21.5 1t-21.5 1h-6q-8 0 -16 4l-17 14q-4 4 -4 7q-8 5 -8 18z" />
<glyph unicode="o" horiz-adv-x="1427" d="M123 465q6 199 139 364q36 42 127 99l31 18q113 72 264 72h12q184 -4 277 -41q229 -92 297 -299q33 -97 33 -182q0 -68 -21 -127q-46 -130 -168 -240q-91 -82 -194 -119q-74 -26 -162 -26q-24 0 -74 4q-27 6 -55 6q-115 15 -135 20q-186 47 -297 191q-47 57 -61 121 q-13 56 -13 121v18zM199 457q-1 -14 0 -27q0 -79 20 -115q104 -182 285 -219q48 -9 155 -22l62 -6q23 -3 46 -3q96 0 194 50q77 39 159 127q107 116 107 254q-3 78 -27 151q-56 177 -254 254q-58 23 -203 35l-59 6q-16 -4 -27 -4l-77 -12q-40 -7 -85 -29t-66 -35.5 t-77 -52.5l-6 -6q-25 -16 -49 -53q-92 -130 -98 -293z" />
<glyph unicode="p" horiz-adv-x="1392" d="M82 41q-1 2 -1 5q0 6 7 13q9 9 16 9h86q25 85 46 204q30 154 40 187q43 170 56 227q15 72 47 197q3 9 11.5 14.5t17.5 3.5q22 -6 32 -22q9 -13 4 -39h-2q-30 -122 -49 -207l-31 -137q-22 -84 -47 -211q-7 -43 -14 -68q-3 -20 -22 -117l-7 -28l72 -2q19 0 23 -19l2 -12 q3 -7 -1 -14.5t-10 -10.5l-6 -4q-12 -12 -28 -12q-59 -4 -183 -4h-2q-51 0 -57 47zM260 983q0 10 12 18q29 15 70 15h14q64 6 136 6q81 0 241 -8l107 -6h2q188 -8 280 -39q119 -41 176 -156q2 -2 13 -25q0 -4 4 -12q18 -44 18 -81q0 -16 -3 -31q-12 -50 -66 -107 q-100 -103 -250 -127q-80 -14 -193 -20q-211 -10 -250 -11q-16 -1 -46.5 -2t-45.5 -2h-6h-10q-15 0 -23 4q-12 6 -20 27q-4 8 -8 12q-6 12 0 25q10 10 20 10h80h37q84 0 129 2q107 3 188 12q51 2 140 17q101 19 174 78q62 47 71 99q2 9 2 19q0 45 -34 99q-52 85 -164 106 q-64 11 -174 19l-17 2q-219 16 -340 20h-22q-32 0 -94 -4q-9 -1 -28.5 -2t-29.5 -2h-6h-18q-17 0 -23 2q-17 3 -27 16q-6 6 -8 7q-8 5 -8 20z" />
<glyph unicode="q" horiz-adv-x="1423" d="M43 467q-2 18 -2 38q0 40 8 85q14 78 43 145q44 106 144 168q40 26 62 38.5t63.5 30t78.5 23.5l76 6q14 2 40.5 5.5t39.5 5.5q28 4 45 4q61 0 160 -35q132 -44 203 -133l6 -4q92 -111 118 -191q25 -76 25 -150q0 -76 -27 -149q-40 -106 -137 -184l-18 -16q0 -1 1 -5t1 -6 q4 -8 4 -12l24 -78q4 -19 17 -53q13 -50 65.5 -94t100.5 -49q6 -1 12 -1q66 0 102 60q6 12 15 21l8 12q10 13 25 10q15 -4 18 -16q5 -14 5 -27q0 -15 -3 -26q-2 -9 -9 -22t-10 -16.5t-12 -15.5q-50 -59 -127 -59q-25 0 -37 4q-174 34 -231 213q-1 2 -29 96l-6 19 q-6 -3 -22 -15q-118 -65 -281 -65h-16q-8 1 -23 2t-22 2q-16 2 -45 2q-87 0 -157 35t-140 96q-130 111 -156 301zM127 424q40 -138 141 -217l6 -4q35 -26 52 -38t48 -27t58 -19q86 -13 162 -13q44 0 88 3q101 9 197 77q-9 15 -19 35q-48 94 -74 125q-92 108 -196 111 q-15 0 -29 14q-4 2 -8 6q-10 7 -10 21q0 13 10 20q22 14 53 14q5 0 41 -6l2 -2q158 -42 258 -227q16 -32 31 -59q2 -2 2 -7q134 117 134 271q0 10 -1 20q-9 162 -98 246q-2 3 -6.5 8.5t-5.5 7.5l-5 4q-106 133 -284 142q-8 0 -26 1t-27 1q-60 0 -142 -10q-144 -18 -260 -134 q-54 -54 -76 -135q-27 -79 -27 -147q0 -43 11 -82z" />
<glyph unicode="r" horiz-adv-x="1687" d="M123 70q4 13 18.5 22.5t28.5 9.5h2q21 0 61 -4h7q2 8 7 23.5t7 23.5l43 138q4 14 13.5 42.5t13.5 43.5q31 96 41 131q2 8 5 23t5 22q0 2 1 6t1 6q1 4 2 12.5t2 12.5l6 45q8 34 64 239q3 13 16 23t27 10q13 -1 24.5 -13t13.5 -26q3 -21 -6 -47l-24 -86q-30 -113 -31 -115 q-5 -18 -20 -84q-11 -48 -27 -104q-5 -18 -16.5 -55t-16.5 -56q-29 -90 -31 -98q-12 -37 -22 -92q-4 -16 -4 -23h14q3 0 9.5 1t9.5 1q45 0 71 -39q7 -11 2 -22q-4 -11 -16 -14q-3 0 -8.5 -1t-7.5 -1q-18 -7 -31 -7h-117h-51h-8q-15 0 -23 2h-12q-27 0 -37 17q-7 10 -7 23 q0 5 1 10zM303 1001q1 12 12 21.5t23 11.5h14h19h12q17 0 50 -1t50 -1q80 -2 246 -2q59 0 88 2q62 4 92 4q17 0 25 -2q91 0 196 -20q34 -6 136 -39l14 -6q39 -13 72.5 -46.5t54.5 -78.5q23 -50 23 -98q0 -39 -15 -76q-49 -114 -168 -158q-82 -29 -170 -37q40 -34 61 -54.5 t47.5 -55.5t41.5 -72q27 -64 57 -178q12 -43 21 -84q13 -62 30 -113q15 -46 56.5 -75t93.5 -29q39 0 69 18q34 19 45 78q3 10 15 16q10 7 20 0q40 -20 40 -54q0 -12 -5 -26q-20 -51 -71.5 -82.5t-114.5 -31.5q-5 0 -14.5 1t-14.5 1q-80 9 -137.5 64t-77.5 141l-33 131 l-30 123q-34 142 -183 241q-51 36 -135 39q-15 1 -45 2t-45 2q-13 0 -37 1t-35 1h-2q-28 0 -43 17q-9 15 -6 39q7 18 25 18h69q25 2 78 2q57 0 82 -4q27 -2 82 -2q113 0 215 29q76 25 131 94q19 27 19 81t-31 94q-32 41 -78 58q-133 47 -303 47h-47q-90 -4 -148 -4 q-23 0 -68 1t-67 1h-123h-47q-40 0 -63 2q-22 0 -43 9q-12 4 -19.5 16.5t-5.5 23.5z" />
<glyph unicode="s" horiz-adv-x="919" d="M88 252q12 55 49.5 97.5t91.5 62.5q30 12 60 12q75 0 112 -62q16 -29 11 -44t-31 -35q-8 -6 -17.5 -5t-15.5 9l-8 10q-12 16 -21 25q-9 16 -38 16q-28 0 -57.5 -16t-39.5 -39q-26 -48 -25.5 -91.5t25.5 -82.5q27 -46 101 -72q95 -29 168 -29q86 0 159 33q112 47 136 160 q4 21 4 42q0 35 -12 71q-18 56 -58 83q-51 34 -84 49q-4 3 -43 25l-45 27q-81 44 -111 67q-76 57 -92 166q-2 18 -2 36q0 80 45 140q89 115 221 115q56 0 111 -25q78 -31 123 -110l2 -2q15 -23 15 -43q0 -24 -21 -43q-15 -15 -33 2l-6 6q-14 11 -21 22q-57 113 -161 113 q-38 0 -76 -14q-102 -34 -117 -125q-3 -19 -3 -37q0 -80 67 -135q51 -43 135 -84q92 -45 151 -90q53 -41 82 -115q17 -46 16 -85q0 -34 -12 -64q-1 -3 -6 -21q-20 -117 -145 -186q-92 -51 -193 -54q-10 -2 -28 -2q-153 0 -277 74q-16 11 -20 16q-72 79 -72 174q0 28 6 58z " />
<glyph unicode="t" horiz-adv-x="1550" d="M135 870q24 58 41 99q14 27 17 39q7 14 22 14q40 -1 121 -4t121 -4q394 -13 561 -13q48 0 233 5q14 0 21 -11q5 -8 5 -14q0 -3 -1 -6l-16 -51l-37 -121q0 -2 -2 -4q-7 -37 -39 -37q-9 0 -13 2q-20 6 -24 20q-8 14 2 39l2 4l31 91q1 1 2 4t2 4h-445q-49 -139 -118 -447 q-57 -251 -99 -389q12 -1 33.5 -4t30.5 -4q20 -4 20 -33v-10q0 -21 -22 -25h-19q-10 -2 -33 -2h-8l-129 6l-22 2q-24 0 -35 17q-14 19 -6 43q7 18 24 18l84 -6q57 164 105 385q23 110 63 256q3 14 10.5 41.5t10.5 42.5q4 15 13 47t13 51q4 8 4 17l-409 12l-66 -168 q-7 -14 -22 -14q-15 -4 -23 12l-6 17q-10 17 -10 27q0 17 12 52z" />
<glyph unicode="u" horiz-adv-x="1218" d="M94 444q6 21 15 60q3 12 8 34t8 33q9 35 41 138q4 14 9 30t10.5 35t9.5 31q3 10 12 43t14 53l6 21q-9 -1 -26 -2t-25 -2q-31 -3 -45 14q-15 15 -12 45q0 9 6.5 15.5t15.5 6.5q5 0 15.5 1t15.5 1q12 0 34 1.5t32 1.5h4q24 0 141 -5q9 -1 31 -18q0 -4 4 -4q4 -4 8 -19 q0 -8 -8 -16q-4 -4 -4 -6q-19 -19 -33 -21q-16 -2 -45 -2h-21h-8q0 -6 -2 -10q-6 -29 -16 -63q-25 -83 -29 -99l-49 -161q-4 -17 -12.5 -52t-12.5 -53l-18 -90q-5 -19 -5 -38q0 -63 50 -132q63 -87 184 -111q59 -12 133 -12q12 0 38 1t38 1q8 0 23.5 1t23.5 1 q48 0 91.5 19.5t103.5 58.5q12 7 33 22.5t32 22.5l13 8q68 51 127 160q74 142 125 315q19 68 26 89q5 17 18.5 63.5t20.5 71.5q0 2 2 2h-18h-43h-4q-24 0 -35 14q-15 15 -10 47q4 18 18 21q43 6 94 6q44 0 64 -2h12q5 0 16.5 -1t16.5 -1q6 -2 18 -2q27 -4 39 -18 q10 -12 10 -26q0 -42 -43 -42q-8 0 -12 2h-18h-19h-4q-1 -6 -4 -16.5t-4 -12.5q-6 -19 -17.5 -55t-15.5 -49q-56 -189 -72 -236q-82 -224 -184 -342q-40 -45 -104 -86q-112 -75 -185 -94q-75 -19 -116 -19h-7h-28h-41q-7 0 -21 -1t-20 -1q-28 0 -68 4q-129 16 -204 64 q-82 52 -128 148q-27 57 -27 121q0 45 13 93z" />
<glyph unicode="v" horiz-adv-x="1585" d="M82 985q4 23 22 23q98 4 144 4q7 0 21.5 -1t21.5 -1h35q20 0 41 -6q2 -1 9.5 -4.5t12.5 -4.5q14 -3 17 -16t-7 -23q-28 -28 -75 -28h-11h-10q31 -60 174 -344.5t219 -431.5q1 -2 23 -35q138 183 325 461q167 242 252 358q-9 1 -26 2t-25 2h-4q-23 0 -33 8q-24 14 -20 41 q0 17 26 33q4 2 15 2h8h2l49 -2q48 0 146 -4h6q45 0 61 -35q2 -6 2 -11q0 -11 -10 -18q-29 -20 -70 -20q-12 0 -20 2h-4q-14 0 -29 -18q-15 -25 -37 -58q-120 -175 -155 -223q-55 -76 -146 -211q-140 -208 -207 -293q-15 -17 -28 -41h12q39 0 53 -47q3 -9 -2 -17.5 t-14 -11.5q-1 -1 -4.5 -2t-5.5 -2q-16 -8 -31 -8h-27q-71 0 -106 2h-39q-25 0 -39 17q-13 13 -10 45q1 9 7.5 14.5t14.5 5.5h39l-29 57l-229 451q-8 16 -34 65.5t-40 75.5q-8 16 -43 84q-9 18 -10 21q-30 60 -31 63q-13 25 -39 25q-10 0 -30.5 1t-30.5 1q-23 0 -35 14 q-12 10 -12 39z" />
<glyph unicode="w" horiz-adv-x="1765" d="M82 948q0 16 10 23q6 6 10 8q13 13 29 16q18 2 45 2q23 0 33 -2q87 -6 88 -6q31 0 61 6h15q40 0 53 -43q4 -11 -2 -20q-7 -10 -18 -10l-119 -9q0 -38 4 -116l12 -324q1 -16 2 -46.5t2 -45.5q4 -166 17 -262l20 20q24 29 68.5 82.5t52.5 63.5q58 69 92 112l74 84 q19 22 56 68t56 69q21 23 52 68l18 25q17 26 39 26q21 0 41 -30l168 -334q15 -28 40 -81t29 -61q18 -37 46 -88q168 378 340 801q-32 -4 -50 -4q-4 -2 -12 -2q-22 0 -33 14q-13 13 -10 41q0 19 23 23q22 0 34 2q28 0 82 4h62h28h21h4q43 0 53 -39q2 -4 2 -7.5t-2 -7.5 q-3 -8 -10 -12q-20 -14 -55 -14h-27q-8 2 -22 2h-9l-358 -854h8h12q45 0 66 -31q8 -10 4 -22q-7 -14 -18 -17l-15 -2q-18 -6 -32 -6h-7h-92q-25 2 -73 2q-28 0 -41 15q-14 14 -11 39q3 20 25 20h51q-30 75 -123.5 264t-142.5 275l-455 -545l8 2q38 0 52 -41q3 -16 -9 -25 q-24 -18 -55 -18q-18 0 -24 2h-17l-141 12q-5 1 -16.5 2t-16.5 2q-18 0 -24 23q-2 2 -5 8q-6 11 2 23q6 12 19 12h80l-33 834q-8 4 -27 4h-16h-20q-32 0 -52 8q-12 3 -16 18z" />
<glyph unicode="x" horiz-adv-x="1431" d="M41 66q2 8 9 14t16 6h30q23 2 74 2q20 0 39 16q71 64 180 158q74 63 119 103l127 112q7 6 22 20t23 21l-23 25q-71 87 -71 88q-58 76 -101 129q-7 10 -51 65l-6 9q-9 14 -29.5 38.5t-23.5 28.5q-36 47 -78 47h-14q-8 -2 -23 -2q-30 0 -65 27q-8 5 -11 18q0 12 11 19 q0 2 2 2q9 14 26 14q101 -2 269 -10q11 -2 26 -12l6 -7q13 -7 13 -18q0 -14 -11 -21q-27 -18 -61 -18h-25q164 -222 295 -371q36 33 180 158q170 145 244 221l-63 4q-19 0 -23 19l-2 10q-3 14 8 25l4 4q16 16 31 16l240 -6q12 0 26 -14v-2q12 -6 12 -17q0 -3 -1 -6 q-9 -39 -48 -39h-14q-23 4 -43 4q-15 0 -23 -4.5t-28 -26.5q-4 -5 -35 -36q-9 -9 -47 -45.5t-59 -55.5l-150 -127q-21 -17 -62 -51.5t-61 -52.5q-6 -5 -17.5 -16.5t-17.5 -16.5l-2 -4q6 -11 23 -33q45 -62 78 -102q85 -104 106 -129l101 -123q23 -29 55 -29h6q6 2 16 2 q21 0 43 -16l7 -4q13 -10 10 -23q0 -13 -10.5 -26t-34.5 -13h-8q-9 1 -29 2t-29 2l-94 7q-23 0 -33 -2h-39q-16 0 -32 16l-5 4q-10 7 -10 20q0 12 10 19q3 0 7 4q11 11 28 14q40 0 60 2q-17 17 -23 27q-109 131 -115 139q-51 65 -110 144q-10 12 -35 45q-66 -54 -212 -183 t-212 -192q46 0 82 -25q14 -7 10 -22q-3 -15 -18 -21q-9 0 -17 -4q-15 -6 -30 -6q-30 0 -84 4q-13 0 -39.5 1t-40.5 1h-33q-12 -2 -39 -2q-28 0 -43 17q-11 13 -11 32q0 4 1 9z" />
<glyph unicode="y" horiz-adv-x="1349" d="M84 981q9 18 25 20l14 3l117 6h20h31h35h2q24 0 37 -15q15 -12 12 -39q0 -9 -7 -15.5t-16 -6.5l-43 -4q1 -2 11 -12q56 -60 157 -169.5t148 -160.5q2 -2 10 -6l274 356l-63 2q-17 3 -23 18q-8 25 6 39q8 15 37 19h129h80q14 0 30 -10.5t17 -26.5q1 -5 1 -9q0 -16 -9 -22 q-11 -14 -33 -14q-10 0 -14 2q-20 4 -27 4q-22 0 -39.5 -14t-44.5 -49q-75 -102 -157 -205q-68 -87 -90 -113q-7 -9 -20.5 -28.5t-20.5 -28.5q-21 -36 -43 -60q-29 -39 -85 -109t-67 -85l-102 -129q-18 -24 -21 -29h10q40 0 62 -20q14 -10 6 -29q-16 -29 -49 -29h-8h-6h-56 h-75h-64q-53 0 -53 49q-3 13 6 19q8 8 16 8h29h31h30h5q16 0 26 12q66 85 180 228l125 159q13 18 19 29q-9 14 -17 19q-34 38 -102 110q-168 181 -242 262q-22 25 -51 25h-12q-10 -2 -25 -2q-20 0 -45 18l-2 2q-9 9 -9 19q0 6 3 12z" />
<glyph unicode="z" horiz-adv-x="1228" d="M43 41q-2 7 -2 14q0 27 27 49l2 2q1 0 3 1.5t3 1.5q20 16 35 26l49 37q16 14 45 38t41 34l104 88q55 44 86 65q79 61 103 82q134 112 299 254q131 117 196 178l23 19v2q-58 4 -80 4h-4q-229 0 -447 -6h-106q-10 -2 -31 -2q-6 0 -19 -1t-20 -1h-18q0 2 -4 2q-22 0 -31 -27 q-13 -40 -37 -102q-2 -8 -10 -29l-6 -12q-12 -19 -31 -13q-25 9 -31 27q-9 21 2 43q5 14 15 38t12 28q8 16 14 34q4 7 8 21q14 42 31 55q18 13 45 13h19q9 -3 16 -3h2q17 0 53.5 1.5t55.5 1.5h157q180 5 215 6q54 0 156 4h78h55q1 0 37 -6q2 0 6 -1t6 -1q15 -3 19 -19l4 -14 q1 -4 1 -7q0 -10 -7 -16q-374 -364 -1000 -856h19q7 0 20 -1t19 -1q46 0 71 -2h21q10 -2 26 -2h9q39 4 127 4q28 0 82.5 -1t80.5 -1q118 -4 177 -4q17 0 49 1t47 1q23 2 65 2q15 3 19 14l43 82q9 18 18 33q6 14 23 14l10 -2q20 -4 20 -20q2 -4 2 -6q6 -22 0 -33 q-10 -25 -28 -61q-8 -20 -29 -62q-14 -35 -59 -35h-2q-63 2 -195 2h-18q-53 0 -80 -2q-15 0 -44 -1t-44 -1q-12 0 -34 1t-32 1q-50 4 -84 4q-41 0 -119 -4h-22q-8 0 -26 -1t-29 -1q-45 0 -131 4q-11 0 -35 1t-37 1q-6 0 -21 5l-2 2q-13 3 -16 16z" />
<glyph unicode="&#xa3;" horiz-adv-x="1161" d="M45 31q-9 27 4 45q12 14 39 14q6 0 10 -2h54h41h26l156 416q-6 2 -18.5 5t-18.5 5q-28 11 -53 29q-59 41 -80 88q-9 20 -2 37q11 16 26 20h9q22 0 36 -18q11 -11 23 -27q24 -31 37 -41q4 -4 10.5 -6.5t16 -5t14.5 -4.5q10 0 22 -6q7 0 11 -2l4 10q13 36 26 67 q30 70 56 107q61 97 92 137q43 49 119 86q74 32 135 37h43q33 0 47 -4q107 -18 145 -98q35 -83 41 -113q7 -25 -2 -68l-2 -14q-1 -5 -3 -16.5t-3 -16.5q-4 -10 -8 -30q-2 -19 -13 -30t-30 -11h-8q-16 4 -21 14q-15 15 -12 39q2 7 5 22.5t5 22.5q7 25 10 45q8 48 -28 113 q-28 50 -82 59q-70 10 -129 -4q-124 -29 -201 -158q-35 -57 -64 -127q-5 -10 -14 -31.5t-14 -31.5q-7 -14 -13 -23q98 -8 195 -8q39 0 57 2h17q72 0 131 -20q19 -8 39 -35l4 -6q14 -19 20.5 -29t12.5 -29.5t4 -40.5q-2 -13 -12 -26.5t-23 -16.5h-8q-35 0 -37 41 q-6 67 -64 76q-18 4 -59 4q-35 0 -51 2q-20 2 -70 2h-41h-41q-47 0 -67 2q-6 0 -19 1t-20 1h-6l-146 -393q28 -4 68 -4q13 0 31.5 1t21.5 1h18q78 0 125 -2q22 0 55.5 -1t41.5 -1q104 0 221 6q1 0 3 1t3 1q32 68 35 74l2 2q2 4 5 12t5 12q5 15 16 37q14 27 37 27q2 0 5.5 -1 t5.5 -1q17 -7 20.5 -25.5t-2.5 -29.5q-7 -19 -20.5 -52t-18.5 -45q-2 -6 -7 -18.5t-7 -18.5q0 -2 -2 -4q-9 -42 -33 -47q-15 -6 -201 -6h-12h-47h-47h-99h-14q-18 0 -56 1t-57 1q-74 4 -110 4q-17 0 -27 -2q-53 0 -80 -2q-59 0 -88 -2q-12 0 -24 4q-2 0 -5 1t-4 1 q-15 3 -18 19z" />
<glyph unicode="&#xad;" d="M43 543q6 16 25 16h43q278 4 426 4q21 0 34 -16q10 -16 4 -33q-6 -29 -45 -29h-12h-6q-66 0 -204.5 -1t-213.5 -1h-2q-30 0 -43 17q-12 15 -6 43z" />
<glyph unicode="&#x2000;" horiz-adv-x="777" />
<glyph unicode="&#x2001;" horiz-adv-x="1554" />
<glyph unicode="&#x2002;" horiz-adv-x="777" />
<glyph unicode="&#x2003;" horiz-adv-x="1554" />
<glyph unicode="&#x2004;" horiz-adv-x="518" />
<glyph unicode="&#x2005;" horiz-adv-x="388" />
<glyph unicode="&#x2006;" horiz-adv-x="259" />
<glyph unicode="&#x2007;" horiz-adv-x="259" />
<glyph unicode="&#x2008;" horiz-adv-x="194" />
<glyph unicode="&#x2009;" horiz-adv-x="310" />
<glyph unicode="&#x200a;" horiz-adv-x="86" />
<glyph unicode="&#x2010;" d="M43 543q6 16 25 16h43q278 4 426 4q21 0 34 -16q10 -16 4 -33q-6 -29 -45 -29h-12h-6q-66 0 -204.5 -1t-213.5 -1h-2q-30 0 -43 17q-12 15 -6 43z" />
<glyph unicode="&#x2011;" d="M43 543q6 16 25 16h43q278 4 426 4q21 0 34 -16q10 -16 4 -33q-6 -29 -45 -29h-12h-6q-66 0 -204.5 -1t-213.5 -1h-2q-30 0 -43 17q-12 15 -6 43z" />
<glyph unicode="&#x2012;" d="M43 543q6 16 25 16h43q278 4 426 4q21 0 34 -16q10 -16 4 -33q-6 -29 -45 -29h-12h-6q-66 0 -204.5 -1t-213.5 -1h-2q-30 0 -43 17q-12 15 -6 43z" />
<glyph unicode="&#x2013;" horiz-adv-x="1105" d="M45 543q11 16 48 16h82q531 4 813 4q40 0 65 -16q19 -16 8 -33q-12 -29 -86 -29h-23h-12q-126 0 -390.5 -1t-407.5 -1h-4q-57 0 -82 17q-23 15 -11 43z" />
<glyph unicode="&#x2014;" horiz-adv-x="2128" d="M49 543q23 16 95 16h164q1062 4 1627 4q80 0 130 -16q38 -16 15 -33q-23 -29 -171 -29h-46h-23q-252 0 -781 -1t-816 -1h-7q-115 0 -164 17q-46 15 -23 43z" />
<glyph unicode="&#x202f;" horiz-adv-x="310" />
<glyph unicode="&#x205f;" horiz-adv-x="388" />
<glyph unicode="&#x20ac;" horiz-adv-x="1239" d="M4 410q9 18 39 18q7 0 23 1t24 1q19 0 33 -2h65v4q2 34 25 135q-23 0 -55 1t-41 1q-21 0 -35 17q-13 13 -10 26q0 14 11.5 24t29.5 11q16 3 28 0h13q18 -2 79 -2l3 4l4 8q43 178 219 301q128 86 252 86q149 0 295 -49q102 -37 172 -135q7 -9 18.5 -28t15.5 -25 q13 -22 17 -27q5 -7 3 -16.5t-9 -13.5l-21 -19q-9 -6 -20 -6q-12 4 -17 12l-2 4q-27 45 -40.5 66t-40.5 50t-56 44q-17 10 -47 21l-21 6q-98 39 -231 39h-29q-49 -2 -141 -41l-59 -25l-2 -2q-47 -46 -73 -73.5t-59.5 -77.5t-48.5 -99q-2 -2 -2 -4q38 0 126 -1t132 -1 q69 0 169.5 -1t117.5 -1q13 0 19 2q4 0 11 1t11 1h2q26 0 39 -16q15 -18 6 -49q-3 -17 -22 -17h-27h-35h-22q-156 0 -269 2q-194 0 -280 2q-18 -70 -25 -118l-2 -21q53 -2 178 -2q48 -1 115.5 -1.5t110 -1t61.5 -1.5h33h47h41q14 0 20 -12q14 -23 4 -43q-12 -20 -40 -23 q-2 -2 -9 -2q-8 0 -12 2h-6q-136 4 -414 4q-43 2 -123 2q15 -73 78 -127q129 -106 256 -147q77 -23 139 -23q40 0 88 10q154 32 230 78q59 36 106 95q6 9 13 16q4 8 8 12q7 10 18 10t19 -8q12 -16 13 -32t-2.5 -22t-10.5 -17q-2 0 -2 -5q-42 -59 -107 -100 q-182 -113 -399 -113q-146 0 -293 97l-25 14q-6 4 -18.5 12.5t-18.5 12.5q-145 91 -169 237q-31 2 -76 2q-9 0 -28 -1t-28 -1l-28 -4q-16 0 -23 14q-18 31 -6 50z" />
<glyph unicode="&#x25fc;" horiz-adv-x="1024" d="M0 0v1024h1024v-1024h-1024z" />
</font>
</defs>
</svg>
